<svg id="svg4000" xmlns="http://www.w3.org/2000/svg" xmlns:xlink="http://www.w3.org/1999/xlink" viewBox="0 0 593.16 515.32"><defs><linearGradient id="linear-gradient" x1="-739.53" y1="713.1" x2="-723" y2="731.37" gradientTransform="translate(-577.14 1268.85) rotate(180) scale(1.34)" gradientUnits="userSpaceOnUse"><stop offset="0" stop-color="#d16969" stop-opacity="0"/><stop offset="1" stop-color="#ba625a" stop-opacity="0.5"/></linearGradient><linearGradient id="linear-gradient-2" x1="275.87" y1="724.36" x2="281.41" y2="724.36" gradientTransform="matrix(1.34, 0, 0, -1.34, 14.87, 1268.85)" xlink:href="#linear-gradient"/></defs><g id="layer1"><g id="g3980"><path id="path20" d="M375.18,178c-11.42-5.17-19.38,4.67-19.38,4.67s.72-11.5-9.71-13.66-14.37,10.07-14.37,10.07-7.91-17.62-21.2-12.22-8.26,24.43-8.26,24.43-6.11-5.74-12.21-5.34-7.2,15.06-7.2,15.06H395.39s-5.1-16.2-20.21-23Z" transform="translate(-1.33 -163.29)" fill="#fff" fill-opacity="0.4"/><path id="path24" d="M373,290.32S208.92,171.15,148.42,245C114.79,286.05,202,346.06,122.91,402.2S-13.8,471.65,4.86,535.54C24.41,602.47,185.14,565,294.7,508.86s169.54,57.82,247.4,45.23S644.6,404.58,373,290.32Z" transform="translate(-1.33 -163.29)" fill="#fff" fill-opacity="0.4"/><ellipse id="ellipse32" cx="296.58" cy="505.99" rx="288.96" ry="9.33" fill="#fff" fill-opacity="0.4"/><path id="path443" d="M182.92,255.58a24.84,24.84,0,0,0-2.95.84c-6.68,2.38-11.51,7.73-18.11,10.11-4.26,1.52-8.92,2.67-12.29,5.93a13.37,13.37,0,0,0-4,11c.28,2.67,1.55,5.68.52,8.24s-3.83,3.72-6,5a20.74,20.74,0,0,0-8.61,8.67,11.74,11.74,0,0,0,.68,11.79c1.05,1.42,2.55,2.67,2.75,4.42s-1,3.28-1.82,4.79a11.22,11.22,0,0,0-.65,10.41c2.67,5.08,7.67,4.09,12.3,3.45,10.34-1.44,21.18-2.1,31.29-4.77a12.24,12.24,0,0,0,10.45-10.84c1.51-6.07,1.84-12.37,2.39-18.6q1.16-13.05,3.53-26c.78-4.25,1.67-8.5,2.67-12.71.56-2.39,2.87-7.13.63-9.17-3.3-3.09-8.34-3.43-12.76-2.51Z" transform="translate(-1.33 -163.29)" fill="#42353b"/><path id="path445" d="M213.39,303.47s6.67-45.31,8.24-57S233,192.67,233,192.67l9.42.2s-3.46,43.77-3.46,53.63-3.15,53.71-4.94,61-2.87,12.09-2.87,12.09Z" transform="translate(-1.33 -163.29)" fill="#fb9d89"/><path id="path447" d="M243.84,188.36a36,36,0,0,1-1.47,4.51l-9.35-.2s-12.49-5.73-12.3-10.68,3.07-10.58,4.73-11.21l.3-.09a20.63,20.63,0,0,1,6.56-.11,19.24,19.24,0,0,1,3.89.89l.45.16a9.87,9.87,0,0,1,2.82,1.61l.43.37.3.3c.89,1,1.49,1.69,2,2.32h0a5.21,5.21,0,0,1,.36.55,3.76,3.76,0,0,1,.75,2.95,25.91,25.91,0,0,1-.35,3.52h0v.63a5.83,5.83,0,0,1,.9,4.48Z" transform="translate(-1.33 -163.29)" fill="#fb9d89"/><path id="path449" d="M224.7,176.54s1.53-13,4.51-13.07,3,5.67,3.1,9.13,0,4.42,0,4.42Z" transform="translate(-1.33 -163.29)" fill="#fb9d89"/><path id="path451" d="M226.1,181.12s-2.23-2.22-1.72-4.1,1.39-6.77,1.39-6.77.89-6.68,3.42-6.78,3.11,4.93,3.09,6.78-1,5.16,0,6.77,4.69,2,6.55,5.95" transform="translate(-1.33 -163.29)" fill="none" stroke="#42353b" stroke-linecap="round" stroke-linejoin="round" stroke-width="0.37"/><path id="path453" d="M236.45,179.8a.11.11,0,0,1,0,.08.17.17,0,0,1-.14,0h0a.17.17,0,0,1-.15-.2v-.09a19,19,0,0,0,.12-8.16l.45.16a19.6,19.6,0,0,1-.28,8.21Z" transform="translate(-1.33 -163.29)" fill="#42353b"/><path id="path455" d="M238.52,181.63l-.09.2a.26.26,0,0,1-.16.09.14.14,0,0,1-.09,0,.2.2,0,0,1-.1-.25,14,14,0,0,0,1.34-8.38l.43.37a14.51,14.51,0,0,1-1.33,8Z" transform="translate(-1.33 -163.29)" fill="#42353b"/><path id="path457" d="M242.92,183.31v.39h-.22a2.8,2.8,0,0,1-.64-.08,12.08,12.08,0,0,1-3.74-1.71s-.06-.07-.06-.1a.14.14,0,0,1,0-.17.2.2,0,0,1,.25,0h.08a18,18,0,0,0,2.2,1.2l.34.13a7.47,7.47,0,0,0,1,.31,2.49,2.49,0,0,0,.77,0Z" transform="translate(-1.33 -163.29)" fill="#42353b"/><path id="path459" d="M242.53,176.78a14.84,14.84,0,0,1-1.44,6.1h0a.14.14,0,0,1-.14.08h-.09a.21.21,0,0,1-.11-.2,14.28,14.28,0,0,0,1.43-6.49h0Z" transform="translate(-1.33 -163.29)" fill="#42353b"/><polygon id="polygon461" points="223.09 150.23 230.42 153.52 230.55 153.58 232.62 154.52 230.43 160.52 223.75 178.84 223.62 179.2 223.37 179.9 203.16 166.61 198.06 163.25 199.34 159.86 204.09 147.15 205.83 142.51 206.94 143.02 223.09 150.23" fill="#a66cde"/><path id="path463" d="M214.84,331.71A54.86,54.86,0,0,1,225,342.59" transform="translate(-1.33 -163.29)" fill="none" stroke="#42353b" stroke-linecap="round" stroke-linejoin="round" stroke-width="0.37"/><path id="path465" d="M235.48,318.55a7.89,7.89,0,0,1-3,4.78,4.12,4.12,0,0,1-.75.47l-6.67,18.33a11.55,11.55,0,0,1-2.68-3.52c-.56-1.56.82-3.32,1.34-4.82.91-2.52,1.54-5.17,2.35-7.74a30.62,30.62,0,0,1,1.34-3.84,13.64,13.64,0,0,1,2.29-3.75,6.77,6.77,0,0,1,1.89-1.48.67.67,0,0,1,.18-.11h.07a2.69,2.69,0,0,1,2.23-.24A2.55,2.55,0,0,1,235.48,318.55Z" transform="translate(-1.33 -163.29)" fill="#a66cde" opacity="0.32" style="isolation:isolate"/><path id="path467" d="M170.23,326.82s-10,8-13.35,13.86c0,0,10.07,23.26,15.72,33.5s7.65,21.85,6.54,25.73c-.31,1.06,0,1.42,0,1.42s28.56,15.15,47,5.41c.91-.48,1.08-5.09,1.26-6.1.58-3.29,1.18-6.56,1.65-9.86.91-6.39,1.52-12.85,1.86-19.3.32-6.13.56-12.91-.9-18.88-1.33-5.72-5.34-11.05-9.19-15.16a82.36,82.36,0,0,0-9.09-8.22c-1.55-1.22-3.3-2.32-4.73-3.7-.73-.69-1.74-2.92-2.92-2.77Z" transform="translate(-1.33 -163.29)" fill="#a66cde"/><path id="path469" d="M156.82,340.68A59.19,59.19,0,0,0,145.43,376v16.78l34-1.34s1.7-8.2-4.44-20S156.82,340.68,156.82,340.68Z" transform="translate(-1.33 -163.29)" fill="#a66cde"/><path id="path471" d="M172.18,359.33s5.54,17.16,6.41,24.59l.87,7.42" transform="translate(-1.33 -163.29)" fill="none" stroke="#42353b" stroke-linecap="round" stroke-linejoin="round" stroke-width="0.37"/><path id="path473" d="M176.79,375.17s.63-8,0-11.11" transform="translate(-1.33 -163.29)" fill="none" stroke="#42353b" stroke-linecap="round" stroke-linejoin="round" stroke-width="0.37"/><line id="line475" x1="144.08" y1="225.63" x2="177.69" y2="224.29" stroke-width="0.37" stroke="#42353b" stroke-linecap="round" stroke-linejoin="round" fill="none"/><path id="path477" d="M154,344.46a25.56,25.56,0,0,1,18.81,10.84" transform="translate(-1.33 -163.29)" fill="none" stroke="#42353b" stroke-linecap="round" stroke-linejoin="round" stroke-width="0.37"/><path id="path479" d="M150.68,392.53,145,434.88l-9.13,39.58,9.56,3.39s12.53-29.76,16.2-41.74,10.51-44.47,10.51-44.47Z" transform="translate(-1.33 -163.29)" fill="#fb9d89"/><path id="path481" d="M145.47,477.85l-5,15c-1.47,5.14-16.13,21.89-18.09,22.39-.66.16-1.9-1.34-3.2-3.64l-.2-.36a44.3,44.3,0,0,1-2.08-4.27c-.06-.12-.11-.25-.16-.38-.51-1.21-1-2.45-1.34-3.58a1.69,1.69,0,0,0-.12-.44c-.56-2-.73-3.66-.28-4.46,1.73-2.92,20.84-23.66,20.84-23.66Z" transform="translate(-1.33 -163.29)" fill="#fb9d89"/><path id="path483" d="M139,491.26s-2.32,16-.73,16.52,3.79-1.17,4.41-4.26,2.75-25.67,2.75-25.67l-5.34,4Z" transform="translate(-1.33 -163.29)" fill="#fb9d89"/><path id="path485" d="M132.85,495.37,119.22,511.6l-.2-.36,13.55-16.11a.2.2,0,0,1,.25,0,.19.19,0,0,1,0,.24Z" transform="translate(-1.33 -163.29)" fill="#42353b"/><path id="path487" d="M129.5,492l-12.56,14.95c-.06-.12-.11-.25-.16-.38l12.42-14.81a.2.2,0,0,1,.27,0,.21.21,0,0,1,0,.24Z" transform="translate(-1.33 -163.29)" fill="#42353b"/><path id="path489" d="M126.93,489.31,115.43,503a1.59,1.59,0,0,0-.12-.44l11.33-13.52a.19.19,0,0,1,.26,0h0a.17.17,0,0,1,0,.24Z" transform="translate(-1.33 -163.29)" fill="#42353b"/><path id="path491" d="M235.69,317.19a7.62,7.62,0,0,1-.21,1.34,7.9,7.9,0,0,1-3,4.78,4.07,4.07,0,0,1-.75.46c-1.73,1-3.82,1.34-5.61,2.25a6.51,6.51,0,0,0-1.74,1.11c-1.34,1.2-2.17,3-3.68,4a7.29,7.29,0,0,1-5.9.51l-.28-.07c-1.86-.54-3.63-1.33-5.53-1.74a11.15,11.15,0,0,0-4.53,0,10.68,10.68,0,0,0-3.27,1.22,11.91,11.91,0,0,1-1.94,1,2.64,2.64,0,0,1-1.15.13,3.87,3.87,0,0,1-2.31-1.58,21.27,21.27,0,0,1-3.71-6.51c-.2-.5-.36-1-.51-1.49a31.91,31.91,0,0,1-1.19-6.05c-.11-1.12-.18-2.23-.2-3.32v-1.67a77,77,0,0,1,.66-8c.09-.78.2-1.57.31-2.36.3-2.16.61-4.31.89-6.48v-.36c.21-1.68.37-3.38.53-5.07,0-.75.13-1.53.16-2.27.11-1.51.18-3,.24-4.53v-6.31q0-4-.3-8v-.65a12.78,12.78,0,0,1,.14-4.23,4.66,4.66,0,0,1,1.22-2.24,3.84,3.84,0,0,1,.57-.57,3.14,3.14,0,0,1,.4-.34c.39-.31.81-.6,1.23-.87h.11a16.12,16.12,0,0,1,9.74-2.19,9.53,9.53,0,0,1,6.86,3.18c.8,1,1.34,2.29,2,3.33a8.43,8.43,0,0,0,3.77,2.67c3.59,1.43,8.17,1.5,11.38,3.83a12.31,12.31,0,0,1,4.33,7.12,19.65,19.65,0,0,1,.08,8.7,81.53,81.53,0,0,1-3.08,8.69,15.22,15.22,0,0,0-.84,9,24.7,24.7,0,0,0,2.83,5.65c.19.35.39.7.56,1.06a13.32,13.32,0,0,1,1.66,6.85Z" transform="translate(-1.33 -163.29)" fill="#42353b"/><path id="path493" d="M191.91,339.6c-10.11,2.82-21.68-12.78-21.68-12.78s1.7-.92,3.62-8.09,1-19.48,1-19.48l14.87,12,5.62,4.56a24.37,24.37,0,0,0,.8,6.18,81.59,81.59,0,0,0,2.79,9.18s3.06,5.59-7.05,8.41Z" transform="translate(-1.33 -163.29)" fill="#fb9d89"/><path id="path495" d="M196.17,322a9,9,0,0,1-3.38.76c-8.49.4-15.09-16.52-15.09-16.52l12,5,5.62,4.56a24.8,24.8,0,0,0,.83,6.18Z" transform="translate(-1.33 -163.29)" fill="#f77"/><path id="path497" d="M196.17,322a9,9,0,0,1-3.38.76c-8.49.4-15.09-16.52-15.09-16.52l12,5,5.62,4.56a24.8,24.8,0,0,0,.83,6.18Z" transform="translate(-1.33 -163.29)" fill="#f77" opacity="0.35" style="isolation:isolate"/><path id="path499" d="M213.31,286.3a30.24,30.24,0,0,1-.26,3.2c-.23,2.19-.57,4.26-.89,6a44.37,44.37,0,0,1-1.23,4.83,30.31,30.31,0,0,1-6.39,11.06,16.56,16.56,0,0,1-9.67,5.24c-9.11,1.33-16.69-6.27-19.66-14.11a44.61,44.61,0,0,1-3-13.77S172,260.69,195.89,261C211.27,261.15,213.92,274.94,213.31,286.3Z" transform="translate(-1.33 -163.29)" fill="#fb9d89"/><path id="path501" d="M195.49,265.27a45.34,45.34,0,0,0,5.34.38,13.35,13.35,0,0,1,9.35,6.41,35.09,35.09,0,0,1,4.1,10.87,2.85,2.85,0,0,0,.65,1.42,1,1,0,0,0,1.34,0,1.29,1.29,0,0,0,.15-.72,29,29,0,0,0-3.33-15.35,12.72,12.72,0,0,0-9.13-7.17,28.51,28.51,0,0,0-10.44-.86c-3.56.39.19,4.58,2,5Z" transform="translate(-1.33 -163.29)" fill="#42353b"/><path id="path503" d="M177.68,285.82s-4-10.51-9-7.7-4.61,18.33,2.18,18.06,6.78-1.87,6.78-1.87Z" transform="translate(-1.33 -163.29)" fill="#fb9d89"/><path id="path505" d="M174.47,284.73c-.22-1.24-.61-2.67-1.79-3.15a2.92,2.92,0,0,0-2.68.59,7.17,7.17,0,0,0-2.31,7.27,5.44,5.44,0,0,0,1.58,3,3,3,0,0,0,3.21.57,3.63,3.63,0,0,0,1.53-1.71" transform="translate(-1.33 -163.29)" fill="none" stroke="#42353b" stroke-linecap="round" stroke-linejoin="round" stroke-width="0.39"/><path id="path507" d="M171.13,281.62s2.67,3.5,2.08,10.85" transform="translate(-1.33 -163.29)" fill="none" stroke="#42353b" stroke-linecap="round" stroke-linejoin="round" stroke-width="0.39"/><path id="path509" d="M183.19,288.31a9.6,9.6,0,0,0-9.58,9.25,49.42,49.42,0,0,0,1.6,5c.19.52.4,1,.64,1.53a9.61,9.61,0,1,0,7.34-15.79Z" transform="translate(-1.33 -163.29)" fill="#fb9489"/><path id="path511" d="M212.16,295.54a44.37,44.37,0,0,1-1.23,4.83,30.31,30.31,0,0,1-6.39,11.06,9.42,9.42,0,0,1-2.37-6.3,9.58,9.58,0,0,1,9.57-9.6h.42Z" transform="translate(-1.33 -163.29)" fill="#fb9489"/><path id="path513" d="M187.25,280.09A3.26,3.26,0,0,0,185,281.9a39.28,39.28,0,0,1,11.56,1.46c1.14.32,3.25,0,2.35-1.72-.44-.87-2-1.15-2.89-1.45A13.52,13.52,0,0,0,187.25,280.09Z" transform="translate(-1.33 -163.29)" fill="#42353b"/><path id="path515" d="M213.31,286.3a30.24,30.24,0,0,1-.26,3.2,35.91,35.91,0,0,0-3.63-1.49c-1.12-.39-2.67-1.9-.94-2.77.86-.45,2.35.24,3.21.48a12,12,0,0,1,1.62.58Z" transform="translate(-1.33 -163.29)" fill="#42353b"/><path id="path517" d="M199.44,302.32a.18.18,0,0,1-.1-.24.17.17,0,0,1,.1-.1,6.22,6.22,0,0,0,2.21-1.18,1.62,1.62,0,0,0,.44-.53,2,2,0,0,0-.28-1.55l-.16-.38c-.8-2,0-4.31.74-6.1a54.4,54.4,0,0,1,2.68-5.48.17.17,0,0,1,.21,0,.2.2,0,0,1,0,.25,50.72,50.72,0,0,0-2.67,5.44c-.79,1.83-1.5,4-.75,5.83a.92.92,0,0,0,.15.36,2.26,2.26,0,0,1,.28,1.86,2.11,2.11,0,0,1-.54.65,6.19,6.19,0,0,1-2.32,1.23Z" transform="translate(-1.33 -163.29)" fill="#42353b"/><path id="path519" d="M192.55,287.06a1.56,1.56,0,0,1,.57.11.42.42,0,0,1,.22.46c0,.08-.08.15-.11.24-.08.38.76.8,1,1a3.82,3.82,0,0,1,1.11,1.12c.1.18.12.45-.18.44a2.17,2.17,0,0,1-.92-.3c-.63-.3-1.24-.65-1.9-.9a9.8,9.8,0,0,0-2.05-.59,17,17,0,0,0-3.49-.14h-.32a.39.39,0,0,1-.35-.2.28.28,0,0,1,0-.25.91.91,0,0,1,.23-.17,8.39,8.39,0,0,1,3-.71,21,21,0,0,1,3.17-.12Z" transform="translate(-1.33 -163.29)" fill="#42353b"/><path id="path521" d="M209.74,292.28a1,1,0,0,1,.45.12.32.32,0,0,1,.14.4.55.55,0,0,0-.12.19c-.12.31.5.69.7.87a2.71,2.71,0,0,1,.78,1c.07.16,0,.38-.2.36a2,2,0,0,1-.74-.3c-.48-.28-.93-.6-1.44-.84a9.26,9.26,0,0,0-1.63-.57,12.58,12.58,0,0,0-2.87-.27h-.27c-.1,0-.24,0-.25-.19a.19.19,0,0,1,.08-.2.39.39,0,0,1,.2-.13,7.54,7.54,0,0,1,2.58-.46,18.66,18.66,0,0,1,2.59,0Z" transform="translate(-1.33 -163.29)" fill="#42353b"/><path id="path523" d="M190.76,300.8s4.35,5.34,11,4.16" transform="translate(-1.33 -163.29)" fill="none" stroke="#42353b" stroke-linecap="round" stroke-linejoin="round" stroke-width="0.37"/><path id="path525" d="M193.71,305.12a10.36,10.36,0,0,0,5,1.33" transform="translate(-1.33 -163.29)" fill="none" stroke="#42353b" stroke-linecap="round" stroke-linejoin="round" stroke-width="0.39"/><path id="path527" d="M175.35,286.3a1.21,1.21,0,0,0,.3.67.86.86,0,0,0,1.09-.12,3.25,3.25,0,0,0,.57-1.05c1.34-3.31,4.53-5.47,7.21-7.86a37.85,37.85,0,0,0,9.35-12.75c.79-1.74,1.44-3.86.5-5.54s-3.38-2.28-5.41-2.07a17.57,17.57,0,0,0-8.4,3.66,20.54,20.54,0,0,0-6.68,7.77c-2.58,5.87.21,11.53,1.47,17.29Z" transform="translate(-1.33 -163.29)" fill="#42353b"/><path id="path529" d="M238.07,503v.12l-.46,1.34c-1.92,5.42-5.21,14.58-11,30.05C214,568.66,192.08,615.1,192.08,615.1l-16.89-7.64c-.82-18,14.93-51.37,14.93-51.37l5.58-45.74.23-1.81v-.25c-14.41.76-16.48.53-16.48.53l-4.34-19.59L191,481.3c-13.35-1.95-31.81-9.35-34.24-29.17C153.87,428.21,179,399.9,179,399.9l47,6.84,9,33.39c15.47,8.39,32,19.64,33,29.91,1.48,14.52-10.5,26.74-30,32.92Z" transform="translate(-1.33 -163.29)" fill="#6887ff"/><path id="path531" d="M238,503.08l-.45,1.34a13.24,13.24,0,0,1-2.94,1.64,71.81,71.81,0,0,1-9.6,3l-16.16,4.4c-2.85.79-5.92,1.56-8.68.47a9.67,9.67,0,0,1-4.48-3.73l.19-1.76h0c1.33-1.47,6.42-1,8-1.08,6.33-.47,12.64-1,19-1.51C228.06,505.47,233.26,505,238,503.08Z" transform="translate(-1.33 -163.29)" fill="#6887ff" opacity="0.27" style="isolation:isolate"/><path id="path533" d="M190.2,481.68h0l.32-.06a34.3,34.3,0,0,0,6.61-3,221.63,221.63,0,0,1,33.2-13.36h.14l2.38-.73c.33-.48-.5-.92-1.09-.92a65.26,65.26,0,0,0-13.15,1.25,68.45,68.45,0,0,0-22.31,8.67c-1.57,1-9,4.88-8.8,6.89a1.31,1.31,0,0,0,0,.28Z" transform="translate(-1.33 -163.29)" fill="#6887ff" opacity="0.27" style="isolation:isolate"/><path id="path535" d="M187.41,405c-5.22,8.76-7.21,14.77-9.79,24.64-.9,3.41-1.61,7.05-.55,10.42a14.1,14.1,0,0,0,7.61,8,46,46,0,0,0,10.92,3.09c11.78,2.33,23.45,5.26,34.93,8.73,2.17.66,4.68,1.74,5,4,.41,2.67-2.58,4.51-5.12,5.5-18.51,7.19-38.21,11.87-55.13,22.27" transform="translate(-1.33 -163.29)" fill="none" stroke="#f5d9d6" stroke-linecap="round" stroke-linejoin="round" stroke-width="0.37"/><path id="path537" d="M178.86,425a8,8,0,0,0,3.81.9c6,.2,11.07-1.11,15.32-5.35s5.58-7.66,7.92-12" transform="translate(-1.33 -163.29)" fill="none" stroke="#f5d9d6" stroke-linecap="round" stroke-linejoin="round" stroke-width="0.37"/><path id="path539" d="M224.43,410a211.73,211.73,0,0,1,.33,25.19" transform="translate(-1.33 -163.29)" fill="none" stroke="#f5d9d6" stroke-linecap="round" stroke-linejoin="round" stroke-width="0.37"/><path id="path541" d="M224.63,425.44a2.53,2.53,0,0,1-3-1.33,7.34,7.34,0,0,1-.58-3.49c0-4.79-.13-5.78-.14-10.58" transform="translate(-1.33 -163.29)" fill="none" stroke="#f5d9d6" stroke-linecap="round" stroke-linejoin="round" stroke-width="0.37"/><path id="path543" d="M177.68,401.16a23.19,23.19,0,0,0,8.79,3.67A182.64,182.64,0,0,0,227,410" transform="translate(-1.33 -163.29)" fill="none" stroke="#f5d9d6" stroke-linecap="round" stroke-linejoin="round" stroke-width="0.37"/><path id="path545" d="M204,507.89c-2,12.53-4,24.53-5.93,37.08a78.75,78.75,0,0,1-3.17,14.3A99.62,99.62,0,0,1,190,569.78c-6.15,12.38-11,25.7-11.46,39.52" transform="translate(-1.33 -163.29)" fill="none" stroke="#f5d9d6" stroke-linecap="round" stroke-linejoin="round" stroke-width="0.37"/><path id="path547" d="M206.77,430.78S223,433,235.12,440.13" transform="translate(-1.33 -163.29)" fill="none" stroke="#42353b" stroke-linecap="round" stroke-linejoin="round" stroke-width="0.37"/><path id="path549" d="M175.13,489.19s42.4-22,58.53-24.59" transform="translate(-1.33 -163.29)" fill="none" stroke="#42353b" stroke-linecap="round" stroke-linejoin="round" stroke-width="0.37"/><path id="path551" d="M196,508.22s34.58-2.41,42.1-5.26" transform="translate(-1.33 -163.29)" fill="none" stroke="#42353b" stroke-linecap="round" stroke-linejoin="round" stroke-width="0.37"/><path id="path553" d="M185.7,629.67s-1.5,4.48-3.63,10.54a1.47,1.47,0,0,1-.15.39c-.58,1.65-1.22,3.44-1.88,5.34,0,.13-.09.26-.15.39-1.43,4-3,8.16-4.5,12l-.13.36c-2.4,6.11-4.67,11.36-6.12,13.46a3.71,3.71,0,0,1-.23.32,2,2,0,0,1-.75.67c-3.27,1-8.85-10.93-9.88-15.75s3.39-14.69,4.09-18.44-3.54-10.31-.9-15.86a7.27,7.27,0,0,1,4-3.48,3.16,3.16,0,0,1,.43-.16,21,21,0,0,1,7.38-1.12h.88Z" transform="translate(-1.33 -163.29)" fill="#6887ff"/><path id="path555" d="M169.19,672.54h-.07a11.12,11.12,0,0,1-4.2-3.4,22,22,0,0,1-4.52-12.93,36.22,36.22,0,0,1,2.42-13.58c.08-.23.17-.47.25-.71a16.88,16.88,0,0,0,1.25-4.68,16.3,16.3,0,0,0-.38-4c-.09-.51-.17-1-.25-1.54a22.23,22.23,0,0,1,1.87-12.35.2.2,0,0,1,.24-.1.18.18,0,0,1,.11.22l0,0a21.94,21.94,0,0,0-1.83,12.14c.07.51.16,1,.26,1.52a12.92,12.92,0,0,1-.89,8.8l-.26.71a35.67,35.67,0,0,0-2.39,13.44,21.66,21.66,0,0,0,4.43,12.71,10.68,10.68,0,0,0,4,3.29.19.19,0,0,1,.09.25.16.16,0,0,1-.12.17Z" transform="translate(-1.33 -163.29)" fill="#f5d9d6"/><path id="path557" d="M163.91,627.43a.18.18,0,0,1-.17-.11.19.19,0,0,1,.09-.25,23.26,23.26,0,0,0,8-6.23,6.4,6.4,0,0,0,1.48-2.67.19.19,0,0,1,.22-.15h0a.2.2,0,0,1,.14.23,6.93,6.93,0,0,1-1.57,2.86,23.54,23.54,0,0,1-8.14,6.33Z" transform="translate(-1.33 -163.29)" fill="#f5d9d6"/><path id="path559" d="M175.41,658.31l-.13.36a32,32,0,0,0-14.48-1.75h-.37a.71.71,0,0,1-.11-.12.2.2,0,0,1,.1-.18h.37a32.72,32.72,0,0,1,14.62,1.69Z" transform="translate(-1.33 -163.29)" fill="#f5d9d6"/><path id="path561" d="M182.09,640.24a1.26,1.26,0,0,1-.14.38,14.85,14.85,0,0,1-3.77-.92,38,38,0,0,1-6-3.1.18.18,0,0,1-.08-.25h0a.21.21,0,0,1,.27-.07,37.15,37.15,0,0,0,5.95,3.06,14.57,14.57,0,0,0,3.78.9Z" transform="translate(-1.33 -163.29)" fill="#f5d9d6"/><path id="path563" d="M180.06,645.87c0,.13-.09.26-.14.39A15.94,15.94,0,0,1,171,642.4a.22.22,0,0,1,0-.27.21.21,0,0,1,.28,0,15.28,15.28,0,0,0,8.77,3.74Z" transform="translate(-1.33 -163.29)" fill="#f5d9d6"/><path id="path565" d="M176.86,608.3S174,620.92,174,621a10.29,10.29,0,0,0,3.45,7.66,10.11,10.11,0,0,0,4.41,1.33c.4,0,3.48.72,3.67.23l5.88-15.35Z" transform="translate(-1.33 -163.29)" fill="#fb9d89"/><path id="path567" d="M170,510.27s-2.46,3.22-6,7.72a2.17,2.17,0,0,1-.24.29c-1,1.34-2.08,2.67-3.23,4.11l-.19.31c-3.77,4.73-8,10-11.82,14.36l-.27.32a67.66,67.66,0,0,1-7.54,7.79l-.34.22a1.57,1.57,0,0,1-.92.4c-3.38-.16-4.86-13.18-4.28-18.08s7.94-12.81,9.79-16.16,0-10.89,4.26-15.28a6.08,6.08,0,0,1,3-1.66,2.85,2.85,0,0,1,.58-.12,16,16,0,0,1,6.67.52,3,3,0,0,1,.43.12,28.67,28.67,0,0,1,3.37,1.19Z" transform="translate(-1.33 -163.29)" fill="#6887ff"/><path id="path569" d="M152.76,494.47a15,15,0,0,0-2.87,6,2.22,2.22,0,0,0-.09.37h0c-.24,1-.46,2-.67,3.05a32.55,32.55,0,0,1-1.67,6.23,34.31,34.31,0,0,1-4.5,7.19,43.39,43.39,0,0,0-3.41,5,20.61,20.61,0,0,0-2,5,1.58,1.58,0,0,0-.11.37,22.83,22.83,0,0,0,.6,13.61,7.73,7.73,0,0,0,2.61,3.88l-.34.22a8.17,8.17,0,0,1-2.67-4,23.37,23.37,0,0,1,1.58-19.3,44.11,44.11,0,0,1,3.44-5,33,33,0,0,0,4.41-7,34.48,34.48,0,0,0,1.66-6.17c.2-1,.4-2,.67-3.06a16.33,16.33,0,0,1,2.76-6.23,2,2,0,0,1,.64-.16Z" transform="translate(-1.33 -163.29)" fill="#f5d9d6"/><path id="path571" d="M148.45,537l-.27.32a34.76,34.76,0,0,0-6.57-7.49,8.09,8.09,0,0,0-4.18-2.2h-.24v-.38h.32a8.51,8.51,0,0,1,4.31,2.29A36.52,36.52,0,0,1,148.45,537Z" transform="translate(-1.33 -163.29)" fill="#f5d9d6"/><path id="path573" d="M159.8,495.11a30.06,30.06,0,0,1-6.14,4.74,7.79,7.79,0,0,1-3.41,1.07h-.68v-.39a1.22,1.22,0,0,0,.27,0,6.59,6.59,0,0,0,3.59-1,29.1,29.1,0,0,0,5.89-4.52,2.77,2.77,0,0,1,.48.11Z" transform="translate(-1.33 -163.29)" fill="#f5d9d6"/><path id="path575" d="M164,518a2.17,2.17,0,0,1-.24.29,33.4,33.4,0,0,1-7.51-6,.18.18,0,0,1,0-.25h0a.19.19,0,0,1,.25,0l0,0A32.83,32.83,0,0,0,164,518Z" transform="translate(-1.33 -163.29)" fill="#f5d9d6"/><path id="path577" d="M160.51,522.39l-.19.31a32.44,32.44,0,0,1-6.88-5.11.18.18,0,0,1,0-.25h0a.18.18,0,0,1,.25,0l0,0a31.73,31.73,0,0,0,6.8,5.06Z" transform="translate(-1.33 -163.29)" fill="#f5d9d6"/><path id="path579" d="M175.32,490.43l-12.43,6.15A11.93,11.93,0,0,0,165.28,507c2.81,3.16,4.68,3.3,4.68,3.3l9.35-2.38Z" transform="translate(-1.33 -163.29)" fill="#fb9d89"/><path id="path581" d="M393,566.67a47.31,47.31,0,0,0,4,7.28l.2.32c.69,1.05,1.48,2.18,2.35,3.34.06.09.16.2.22.31l.67.86A25.57,25.57,0,0,1,402,581a1,1,0,0,1,.21.32,46.14,46.14,0,0,1,4.46,9.55l.15.4c1,3.08,1.88,6.2,2.59,9.16a10.21,10.21,0,0,0,.64,2c.94,1.78,3.53,2.31,5.35,2.49a11.29,11.29,0,0,0,6.9-1.34,6.17,6.17,0,0,0,1-.72,5.63,5.63,0,0,0,.84-.92,12.06,12.06,0,0,0,2-4.85c1.09-5.34-.22-10.26-2.35-15.09-1.91-4.3-4.28-8.67-4.26-13.5a37.41,37.41,0,0,0-5.63-20.59,11,11,0,0,0-2.51-2.88,5.94,5.94,0,0,0-2.21-.94l-.47-.06a23.87,23.87,0,0,0-7.66.84c-1.33.27-2.67.59-4,.95l-.24.06c-.67.19-1.34.39-2,.61,1.77,8.94-1.79,20.23-1.79,20.23Z" transform="translate(-1.33 -163.29)" fill="#6887ff"/><path id="path583" d="M408.64,544l4.09,7.77.12.23.06.14a38.23,38.23,0,0,1,2.58,5.59,42,42,0,0,1,1.71,9.1,57.69,57.69,0,0,0,1,6.67,59.07,59.07,0,0,0,2.94,8.58c.41,1,.84,2.1,1.23,3.15a1.52,1.52,0,0,0,.19.5.17.17,0,0,0,0,.1c1.24,3.45,2.57,8,1.85,12.49a10.89,10.89,0,0,1-2.19,5.24,6.33,6.33,0,0,0,1-.72,12.15,12.15,0,0,0,1.62-4.47c.74-4.64-.64-9.27-1.92-12.76-.46-1.23-.95-2.48-1.43-3.68a55.45,55.45,0,0,1-2.91-8.51,62.4,62.4,0,0,1-1-6.67,31.79,31.79,0,0,0-4.39-15l-4-7.71Z" transform="translate(-1.33 -163.29)" fill="#f5d9d6"/><path id="path585" d="M406.64,590.82l.14.4A20,20,0,0,1,422,585.48a.78.78,0,0,1,.51.18.17.17,0,0,1,0,.1l.38.08a.55.55,0,0,0-.08-.4.87.87,0,0,0-.4-.26,1.86,1.86,0,0,0-.41-.08,20.43,20.43,0,0,0-15.31,5.72Z" transform="translate(-1.33 -163.29)" fill="#f5d9d6"/><path id="path587" d="M406.52,551.32a36.69,36.69,0,0,0,6.53.83v-.39a32,32,0,0,1-8.73-1.44,17.15,17.15,0,0,1-7.39-4.62l-.29.25a17.65,17.65,0,0,0,7.56,4.73c.76.24,1.53.46,2.32.64Z" transform="translate(-1.33 -163.29)" fill="#f5d9d6"/><path id="path589" d="M397,574l.2.32a17.07,17.07,0,0,1,6-3.22.21.21,0,0,0,.14-.24.19.19,0,0,0-.24-.12h0A17.83,17.83,0,0,0,397,574Z" transform="translate(-1.33 -163.29)" fill="#f5d9d6"/><path id="path591" d="M399.52,577.61c.06.09.16.2.22.31a17.12,17.12,0,0,1,5.84-3.06.2.2,0,0,0,.13-.24.18.18,0,0,0-.22-.14h0a17.7,17.7,0,0,0-6,3.13Z" transform="translate(-1.33 -163.29)" fill="#f5d9d6"/><path id="path593" d="M402,581a1,1,0,0,1,.21.32,16.69,16.69,0,0,1,5.63-2.91.2.2,0,0,0,.13-.24.16.16,0,0,0-.18-.14l-.05,0a16.76,16.76,0,0,0-5.74,3Z" transform="translate(-1.33 -163.29)" fill="#f5d9d6"/><path id="path595" d="M384.58,545.87l10.44.62s3.56,4,2.08,11.67c-1.34,6.88-4,8.54-4,8.54l-12.15-4Z" transform="translate(-1.33 -163.29)" fill="#ba625a"/><path id="path597" d="M309,549.85l77.47,15.87,5.79-21.65-50.34-19.38.14-.12.44-.36,36.61-31.28,7-32.55-47.25,2.33s-31.77,40-39.5,61.19,9.67,26,9.67,26Z" transform="translate(-1.33 -163.29)" fill="#5057c1"/><path id="path599" d="M335.78,524.5a.19.19,0,0,0,.21.17h0c1-.09,2-.14,3.18-.16H342l.44-.36h-3.31a20.27,20.27,0,0,0-3.2.16.2.2,0,0,0-.17.2Z" transform="translate(-1.33 -163.29)" fill="#f5d9d6"/><path id="path601" d="M362.43,538.93a.18.18,0,0,0,.18-.13.19.19,0,0,0-.13-.24,67,67,0,0,1-19.27-9.18,7.8,7.8,0,0,1-3.55-4.1c-.51-2,.5-4.26,3-6.68A115.55,115.55,0,0,1,354.44,509c5.25-3.93,10.69-8,14.69-12.89a.18.18,0,0,0,0-.27.19.19,0,0,0-.26,0c-4,4.87-9.45,8.91-14.69,12.82a116.65,116.65,0,0,0-11.81,9.68c-2.61,2.57-3.66,5-3.11,7.1a8.15,8.15,0,0,0,3.7,4.31A67.06,67.06,0,0,0,362.31,539Z" transform="translate(-1.33 -163.29)" fill="#f5d9d6"/><path id="path603" d="M429.67,459.09s-8.52,51.9-23.23,69.72L447,535v19.88c-19.31,7.2-41.8,13.17-62.52,11.27-6.09-.56-13.14-1.63-18-5.68-6.76-5.62-4.51-15.4-3.78-23.08a350.06,350.06,0,0,1,7.8-44.53c1.6-7,3-14,4.54-20.94.27-1.2,2.26-13.35,3.78-13.35Z" transform="translate(-1.33 -163.29)" fill="#5057c1"/><path id="path605" d="M361.12,476.52l9.68,10.07s-9.94,52.29-9.16,64.29,14.06,14.2,19.1,15" transform="translate(-1.33 -163.29)" fill="none" stroke="#f5d9d6" stroke-linecap="round" stroke-linejoin="round" stroke-width="0.37"/><path id="path607" d="M406.85,528.35s-5.93,4-7.43,4.73" transform="translate(-1.33 -163.29)" fill="none" stroke="#f5d9d6" stroke-linecap="round" stroke-linejoin="round" stroke-width="0.37"/><path id="path609" d="M421.74,459.58c-3.64,22.31-7.42,45-17.76,65.14a7.79,7.79,0,0,0-1.34,4.23,5.24,5.24,0,0,0,2.67,3.76,15.13,15.13,0,0,0,4.54,1.44,289.65,289.65,0,0,0,36.75,4.94" transform="translate(-1.33 -163.29)" fill="none" stroke="#f5d9d6" stroke-linecap="round" stroke-linejoin="round" stroke-width="0.37"/><path id="path611" d="M415,492.36a62.73,62.73,0,0,1-15.43-37.13" transform="translate(-1.33 -163.29)" fill="none" stroke="#f5d9d6" stroke-linecap="round" stroke-linejoin="round" stroke-width="0.37"/><path id="path613" d="M459.78,554.76a49.29,49.29,0,0,0,5.54,6.19l.27.27c.91.87,1.92,1.79,3,2.67l.3.26.84.69c.68.56,1.33,1.15,2,1.8a1.73,1.73,0,0,1,.28.26,46.3,46.3,0,0,1,6.49,8.32l.23.36c1.71,2.76,3.23,5.61,4.58,8.35a10.24,10.24,0,0,0,1.06,1.77c1.33,1.51,4,1.46,5.77,1.2a11,11,0,0,0,6.42-2.81,5.83,5.83,0,0,0,.78-.93,6.14,6.14,0,0,0,.62-1.09,12,12,0,0,0,.87-5.17c-.12-5.44-2.51-9.95-5.68-14.18-2.81-3.77-6.1-7.5-7.17-12.2a37.58,37.58,0,0,0-10.09-18.82,11,11,0,0,0-3.09-2.24,5.62,5.62,0,0,0-2.36-.4H470a23.74,23.74,0,0,0-7.27,2.54c-1.23.56-2.46,1.16-3.63,1.8a1,1,0,0,0-.23.12c-.62.33-1.22.68-1.8,1,3.68,8.47,2.72,20.21,2.72,20.21Z" transform="translate(-1.33 -163.29)" fill="#6887ff"/><path id="path615" d="M470,529.19l5.73,6.68.16.19.11.12a39.56,39.56,0,0,1,3.77,4.87,43.76,43.76,0,0,1,3.7,8.48,54,54,0,0,0,2.47,6.29,55.52,55.52,0,0,0,4.78,7.7l1.91,2.8c.09.15.2.3.28.44v.1c2,3.07,4.29,7.18,4.61,11.75a11.12,11.12,0,0,1-1,5.6,6.22,6.22,0,0,0,.78-.92,12.15,12.15,0,0,0,.58-4.71c-.32-4.7-2.67-8.89-4.74-12-.7-1.11-1.47-2.19-2.21-3.26a58.19,58.19,0,0,1-4.73-7.64,60.11,60.11,0,0,1-2.47-6.25,31.67,31.67,0,0,0-7.63-13.59l-5.7-6.68Z" transform="translate(-1.33 -163.29)" fill="#f5d9d6"/><path id="path617" d="M478.53,575.32l.23.37a20,20,0,0,1,13.5-9,.66.66,0,0,1,.55,0,.14.14,0,0,1,0,.09h.37a.51.51,0,0,0-.15-.39,1,1,0,0,0-.44-.14,1.48,1.48,0,0,0-.42,0,20.4,20.4,0,0,0-13.64,9.06Z" transform="translate(-1.33 -163.29)" fill="#f5d9d6"/><path id="path619" d="M469.56,536.81a37.87,37.87,0,0,0,6.55-.65l-.06-.37a33,33,0,0,1-8.82.53,17.17,17.17,0,0,1-8.25-2.84l-.21.31a17.75,17.75,0,0,0,8.42,2.91,23.49,23.49,0,0,0,2.37.11Z" transform="translate(-1.33 -163.29)" fill="#f5d9d6"/><path id="path621" d="M465.32,561l.27.26a17,17,0,0,1,5.15-4.48.2.2,0,0,0,.08-.26.16.16,0,0,0-.22-.09h0a17.4,17.4,0,0,0-5.25,4.56Z" transform="translate(-1.33 -163.29)" fill="#f5d9d6"/><path id="path623" d="M468.62,564l.3.25a17.21,17.21,0,0,1,5-4.3.18.18,0,0,0,.07-.25.19.19,0,0,0-.25-.08h0a17.8,17.8,0,0,0-5.12,4.38Z" transform="translate(-1.33 -163.29)" fill="#f5d9d6"/><path id="path625" d="M471.76,566.78a1.67,1.67,0,0,1,.28.25,17,17,0,0,1,4.84-4.09.24.24,0,0,0,.08-.26.18.18,0,0,0-.23-.09l0,0a16.75,16.75,0,0,0-4.93,4.17Z" transform="translate(-1.33 -163.29)" fill="#f5d9d6"/><path id="path627" d="M447,536.42l10.3-1.74s4.39,3.15,4.65,10.9c.22,7-2.07,9.23-2.07,9.23l-12.75-1.22Z" transform="translate(-1.33 -163.29)" fill="#ba625a"/><path id="path629" d="M432.64,494.85s-3.65,5.35-12.57,3.36l3.51-11.76s8,3.62,9.06,8.4Z" transform="translate(-1.33 -163.29)" fill="#6887ff"/><path id="path631" d="M432.64,494.85s-3.65,5.35-12.57,3.36l3.51-11.76s8,3.62,9.06,8.4Z" transform="translate(-1.33 -163.29)" fill="#6887ff" opacity="0.3" style="isolation:isolate"/><path id="path633" d="M404.11,325l2.74-1.66s7.59,51.59,6.08,77.38-10.62,59.18-10.62,59.18l-37.93,1.52S378,419,376.52,384.09s0-50.06,0-50.06Z" transform="translate(-1.33 -163.29)" fill="#fbb81b"/><path id="path635" d="M370.23,265.44c-.48,2.13,0,4.64-1.34,6.35a12.07,12.07,0,0,1-1.43,1.34,6.87,6.87,0,0,0-2.28,6.25c.35,1.79,1.52,3.7.61,5.34a11.21,11.21,0,0,1-1.65,1.58,4.81,4.81,0,0,0-.66,5.15,7.13,7.13,0,0,0,4,3.56,3.06,3.06,0,0,0,1.74.24,2.92,2.92,0,0,0,1.33-.86,12.21,12.21,0,0,0,2.9-6.28,38,38,0,0,1,1.6-6.82c1.6-3.9,5.14-6.93,6-11.06.58-2.67-.07-8.47-3.09-9.83s-7.12,2.1-7.77,5Z" transform="translate(-1.33 -163.29)" fill="#382b31"/><path id="path637" d="M386.29,252.27a15.45,15.45,0,0,1,7.26.8,37.78,37.78,0,0,0,7.1,1.83c1.93.18,3.86,0,5.8,0a17.57,17.57,0,0,1,7.56,1.51,10.72,10.72,0,0,1,5.34,5.34c.76,1.79.94,3.85,2,5.45.83,1.19,2.1,2,3,3.15a6.29,6.29,0,0,1,1.15,5c-.28,1.45-1.09,2.87-.79,4.32s1.93,2.57,3.08,3.73a8.73,8.73,0,0,1,0,12.35c-.18.18-.36.35-.55.51a19.74,19.74,0,0,0-2.49,2.06c-1.33,1.6-1.51,3.9-2.16,5.93a7.89,7.89,0,0,1-4.45,5.15c-1.33.51-2.88.51-4.27,1-2,.63-3.63,2.17-5.64,2.74a8.19,8.19,0,0,1-6.49-1.16,16.12,16.12,0,0,1-4.63-4.89,24.15,24.15,0,0,1-3.08-6.56c-.58-2.06-.82-4.18-1.41-6.24a9.76,9.76,0,0,0-3.3-5.34c-1.71-1.27-3.91-1.61-5.8-2.59-4.24-2.18-6.37-7.43-5.63-12.14a43,43,0,0,0,1.07-6c0-1.51-.41-3-.36-4.51.12-4.36,3.08-10.55,7.67-11.43Z" transform="translate(-1.33 -163.29)" fill="#382b31"/><path id="path639" d="M407.69,295.15c.72-.75,3.59-6.68,8-5.21s3.77,12.42-2.07,14.7-8-.67-8-.67Z" transform="translate(-1.33 -163.29)" fill="#ba625a"/><path id="path641" d="M410.76,294.31c.52-1.12,1.26-2.4,2.5-2.52a2.76,2.76,0,0,1,2.3,1.21,7.13,7.13,0,0,1,.29,7.47,5.27,5.27,0,0,1-2.26,2.43,2.87,2.87,0,0,1-3.15-.28,3.55,3.55,0,0,1-1-2" transform="translate(-1.33 -163.29)" fill="none" stroke="#382b31" stroke-linecap="round" stroke-linejoin="round" stroke-width="0.37"/><path id="path643" d="M414.7,292.23s-3.44,2.67-4.77,9.76" transform="translate(-1.33 -163.29)" fill="none" stroke="#382b31" stroke-linecap="round" stroke-linejoin="round" stroke-width="0.37"/><path id="path645" d="M369,292.48a40.09,40.09,0,0,1,.28-4.26,11.79,11.79,0,0,1,.21-1.74l.67-3.82a.74.74,0,0,1,0-.21,4.7,4.7,0,0,1,.17-.83,8.32,8.32,0,0,1,.24-.88,26.15,26.15,0,0,1,4.91-10.14A20.94,20.94,0,0,1,389.73,263a19.12,19.12,0,0,1,4.47.17c.33.05.66.11,1,.19l.49.1,1,.27a20.26,20.26,0,0,1,11.42,8.78c1.75,2.67,2.39,6.46,2.78,9.67a35.76,35.76,0,0,1,0,8.65,1.17,1.17,0,0,1-.07.47,9.7,9.7,0,0,1-.21,1.33,63.57,63.57,0,0,1-3.87,12.29,34.69,34.69,0,0,0-2.61,11.49,23.42,23.42,0,0,0,.5,6,28.4,28.4,0,0,0,1.33,3.37c.92,3-3.08,6.1-5.14,7.77a24,24,0,0,1-9.88,4.8,20.85,20.85,0,0,1-5.57.45c-3.22-.19-6.35-.95-5.52-4.9.36-1.74,1.34-3.29,1.54-5.06s.28-3.49.4-5.24c0-.76.12-1.52.13-2.3,0-.56.23-2.05-.11-2.52a.14.14,0,0,1,0-.09h0c-2.29-.28-4-.14-6-1.57a12.46,12.46,0,0,1-4-5.13c-1.34-3-1.56-6.19-2.08-9.41a51,51,0,0,1-.67-10.1Z" transform="translate(-1.33 -163.29)" fill="#ba625a"/><path id="path647" d="M395.06,313.82s-6.42,9.35-13.36,10.28a22.27,22.27,0,0,0,.11-5.35.11.11,0,0,1,0-.08.11.11,0,0,0,0-.08h0s10.16-2.24,13.25-4.77Z" transform="translate(-1.33 -163.29)" fill="#ba625a" opacity="0.36" style="isolation:isolate"/><path id="path649" d="M373,290.37a1.25,1.25,0,0,0,1.06,1.34,1.26,1.26,0,0,0,1.33-1.1,1.22,1.22,0,0,0-2.41-.32v0Z" transform="translate(-1.33 -163.29)" fill="#382b31"/><path id="path651" d="M387.87,291.15a1.43,1.43,0,0,0,.91,1.79,1.33,1.33,0,0,0,1.71-.79,1.42,1.42,0,0,0,.05-.16,1.47,1.47,0,0,0-.92-1.81,1.4,1.4,0,0,0-1.74.95v0Z" transform="translate(-1.33 -163.29)" fill="#382b31"/><path id="path653" d="M377.41,286a38.54,38.54,0,0,0-.49,14.2,1.83,1.83,0,0,0,.28.88,1.72,1.72,0,0,0,1.33.55,6.82,6.82,0,0,0,3.45-.6" transform="translate(-1.33 -163.29)" fill="none" stroke="#382b31" stroke-linecap="round" stroke-linejoin="round" stroke-width="0.37"/><path id="path655" d="M383.61,307.37a9,9,0,0,1-4.81.84" transform="translate(-1.33 -163.29)" fill="none" stroke="#382b31" stroke-linecap="round" stroke-linejoin="round" stroke-width="0.32"/><path id="path657" d="M387.8,302.53s-5.77,5.14-12.44,3" transform="translate(-1.33 -163.29)" fill="none" stroke="#382b31" stroke-linecap="round" stroke-linejoin="round" stroke-width="0.37"/><path id="path659" d="M387.8,301.74a9.51,9.51,0,1,0,9.51-9.51,9.51,9.51,0,0,0-9.51,9.51Z" transform="translate(-1.33 -163.29)" opacity="0.38" fill="url(#linear-gradient)" style="isolation:isolate"/><path id="path661" d="M369.83,304.6a39.33,39.33,0,0,0,1.26,5.67,9.51,9.51,0,0,0-2-17.79,63.06,63.06,0,0,0,.79,12.12Z" transform="translate(-1.33 -163.29)" opacity="0.38" fill="url(#linear-gradient-2)" style="isolation:isolate"/><path id="path663" d="M394.05,284.64a5,5,0,0,1,1,1c.54.77,1,2.19.1,2.91s-2.19-.35-3-.75a9,9,0,0,0-3.77-.92,2.42,2.42,0,0,1-1.82-.48c-1.59-1.73,1.93-3.19,3.15-3.25a6.69,6.69,0,0,1,3.57,1,8.67,8.67,0,0,1,.81.53Z" transform="translate(-1.33 -163.29)" fill="#382b31"/><path id="path665" d="M375.53,283.24a2.58,2.58,0,0,1,1.33,1.25,1.32,1.32,0,0,1-.48,1.62,2.49,2.49,0,0,1-1.48,0,6.42,6.42,0,0,0-2.58.16,1.67,1.67,0,0,1-.8.08c-.48-.12-.68-.71-.67-1.2C370.93,282.7,373.73,282.29,375.53,283.24Z" transform="translate(-1.33 -163.29)" fill="#382b31"/><path id="path667" d="M385.47,253.24c-3.22,1-5.35,4.09-6.9,7.09a10.47,10.47,0,0,0-1.59,5.92c.25,2.06,2,4,4.09,3.81,1.1-.15,2.13-.89,3.22-.7a3.26,3.26,0,0,1,2.18,2.38,13.34,13.34,0,0,0,1.08,3.19,4.86,4.86,0,0,0,3.51,2.06,11.68,11.68,0,0,0,4.16-.39c1.75-.41,3.84-.85,5.12.4a4.57,4.57,0,0,1,1,3.09,27.88,27.88,0,0,0,.5,5.69,5.45,5.45,0,0,0,3.59,4c1.19.28,2.59,0,3.49.86a7.85,7.85,0,0,0,.86.87c.75.45,1.7,0,2.5-.39a7.1,7.1,0,0,1,4.5-.4,5.9,5.9,0,0,0,1.71.29c1.51-.09,2.42-1.67,3.05-3a10.07,10.07,0,0,0,1-3c.25-2.28-1.08-4.43-1.34-6.68a22.16,22.16,0,0,1,.61-5.06,6.56,6.56,0,0,0-.82-4.91c-1.64-2.15-5-2.14-7-4-1.34-1.23-1.85-3.1-2.92-4.55a7.28,7.28,0,0,0-6.06-2.93c-2.15.08-4.25,1.14-6.38.81a17.51,17.51,0,0,1-4.6-2,11.22,11.22,0,0,0-6.13-.86c-1.94.28-3.86,1.07-5.78.71" transform="translate(-1.33 -163.29)" fill="#382b31"/><path id="path669" d="M407.17,298.06a1.34,1.34,0,0,1-.48.66.85.85,0,0,1-.94-.27,2.8,2.8,0,0,1-.4-1L404,292.15a10.71,10.71,0,0,1-.51-3.77,3.65,3.65,0,0,1,2-3,3.21,3.21,0,0,1,3.59,1c2.7,3.28-.6,8.57-1.92,11.7Z" transform="translate(-1.33 -163.29)" fill="#382b31"/><polygon id="polygon671" points="500 134.44 484.21 134.71 485.27 110.32 494 109.39 500 134.44" fill="#ba625a"/><path id="path673" d="M486.6,273.61s-7.84-3.81-7.49-7.27a10.66,10.66,0,0,1,2.57-5.79c-1.16-3.26-2.24-6.55-3.27-9.85q-.9-2.89-1.71-5.83c-.53-2-1.45-4.37-1.23-6.48a1.38,1.38,0,0,1,.44-.9c.83-.65,2,0,2.52.73a27.17,27.17,0,0,1,2.15,3.88c.5,1,1,2,1.5,2.93q1.64,3.16,3.24,6.33l1.08,2.12.73-.25s-2.75-18.91-.06-19.36,3.28,6.08,3.66,8.66,2.08,9.35,2.08,9.35a2.56,2.56,0,0,1,2.86.71c1,1.33,5.88,8.18,5.81,10.16s-6.15,9.91-6.15,9.91Z" transform="translate(-1.33 -163.29)" fill="#ba625a"/><path id="path675" d="M494.08,251.88s-5,8.4-4.6,9.47,3.81,4.57,5.35,4.27,5.34-5.74,5.34-5.74" transform="translate(-1.33 -163.29)" fill="none" stroke="#382b31" stroke-linecap="round" stroke-linejoin="round" stroke-width="0.37"/><line id="line677" x1="490.5" y1="100.68" x2="496.81" y2="93.16" stroke-width="0.37" stroke="#382b31" stroke-linecap="round" stroke-linejoin="round" fill="none"/><path id="path679" d="M481.68,260.55s6.62-6.32,8.24-6,2.48,2.67,1.57,4.7-7.28,9.68-7.28,9.68Z" transform="translate(-1.33 -163.29)" fill="#ba625a"/><path id="path681" d="M481.68,260.55s6.94-7.06,8.83-5.71a4,4,0,0,1,.87,5.21,90.06,90.06,0,0,1-6.22,6.59" transform="translate(-1.33 -163.29)" fill="none" stroke="#382b31" stroke-linecap="round" stroke-linejoin="round" stroke-width="0.37"/><path id="path683" d="M488.55,263.36a7,7,0,0,1,4.29,3.08" transform="translate(-1.33 -163.29)" fill="none" stroke="#382b31" stroke-linecap="round" stroke-linejoin="round" stroke-width="0.37"/><path id="path685" d="M484.62,254.24a17.08,17.08,0,0,1,4.92-1.69" transform="translate(-1.33 -163.29)" fill="none" stroke="#382b31" stroke-linecap="round" stroke-linejoin="round" stroke-width="0.37"/><path id="path687" d="M406.85,323.43s7.59,56.09,1.52,94.05-10.68,57.65-10.68,57.65,27.3,7.58,34.88,19.72c0,0,13.65-37.93,13.65-80.4s-4.54-98.6-4.54-98.6-16.69-3-34.9,7.58" transform="translate(-1.33 -163.29)" fill="#6887ff"/><path id="path689" d="M406.85,323.43a506.13,506.13,0,0,1,3.79,51l16.26-35.7-8.32-3.32L422,317.22A58.35,58.35,0,0,0,406.85,323.43Z" transform="translate(-1.33 -163.29)" fill="#4f71dc"/><path id="path691" d="M440.25,360.84l4.08-1.82.34-.15C456,353.76,486.4,340,500.38,332.72l.38-.21a48,48,0,0,0,6.5-3.81c3.1-2.67,2.54-9.64,1.5-15.16a2.67,2.67,0,0,1,0-.4A69,69,0,0,0,507,306l-21.5,1.33-1.83.36h0l-1.26.24h0l-40.52,7.86Z" transform="translate(-1.33 -163.29)" fill="#6887ff"/><path id="path693" d="M503.64,293.58s3.62,12.91,4.78,18.59S496.9,321,496.9,321l-16.23-5.34,2.58-19.62Z" transform="translate(-1.33 -163.29)" fill="#6887ff"/><path id="path695" d="M482.86,299.65h0l21.56-2.84a.19.19,0,0,0,.17-.2h0a.19.19,0,0,0-.21-.17l-21.57,2.84a.2.2,0,0,0-.16.21.18.18,0,0,0,.21.16Z" transform="translate(-1.33 -163.29)" fill="#f5d9d6"/><path id="path697" d="M484.15,297.42a.87.87,0,1,0,.87-.87.87.87,0,0,0-.87.87Z" transform="translate(-1.33 -163.29)" fill="#f5d9d6"/><path id="path699" d="M400,476a.2.2,0,0,0,.19-.13c3.3-11.66,6.26-23.57,8.8-35.43,1.16-5.34,2-9.53,2.59-13.36a187.06,187.06,0,0,0,.78-55.6.21.21,0,0,0-.22-.16.19.19,0,0,0-.16.21h0a186.72,186.72,0,0,1-.77,55.5c-.63,3.87-1.43,8-2.58,13.35-2.55,11.85-5.51,23.76-8.81,35.41a.19.19,0,0,0,.12.24h0Z" transform="translate(-1.33 -163.29)" fill="#f5d9d6"/><path id="path701" d="M483.54,307.76h0l-1.26.24h0l-1.14.23a26.7,26.7,0,0,1,12.24,12.29,22.82,22.82,0,0,0-7.5-13.15h-.48Z" transform="translate(-1.33 -163.29)" fill="#4f71dc"/><path id="path703" d="M451.06,338.76c-5.69,4.1-6.39,20.11-6.39,20.11l2.92-1.33c1.22-9,3.47-18.78,3.47-18.78Z" transform="translate(-1.33 -163.29)" fill="#4f71dc"/><polygon id="polygon705" points="443.6 151.95 440.42 152.57 439.74 172.92 443.6 151.95" fill="#4f71dc"/><path id="path707" d="M435.79,347.16c4.73,3.51,8.54,11.86,8.54,11.86l2.87-1.33c-4.24-9.95-11.41-10.53-11.41-10.53Z" transform="translate(-1.33 -163.29)" fill="#4f71dc"/><polygon id="polygon709" points="297.31 193.17 312.92 190.85 307.88 166.95 299.11 167.47 297.31 193.17" fill="#ba625a"/><path id="path711" d="M309.22,330.24s7.1-5,6.19-8.39a10.65,10.65,0,0,0-3.48-5.34c.61-3.41,1.13-6.83,1.61-10.26.28-2,.54-4,.72-6s.73-4.56.16-6.61a1.28,1.28,0,0,0-.58-.8c-.93-.51-1.94.37-2.36,1.13a26.52,26.52,0,0,0-1.49,4.17l-1,3.14c-.74,2.25-1.45,4.51-2.15,6.77l-.72,2.28-.78-.13s-.39-19.1-3.1-19.1-2.24,6.53-2.19,9.12-.52,9.59-.52,9.59a2.56,2.56,0,0,0-2.67,1.16c-.77,1.55-4.45,9.05-4,11s7.68,8.78,7.68,8.78Z" transform="translate(-1.33 -163.29)" fill="#ba625a"/><path id="path713" d="M299.84,323.9c1.66,0,4.5-4,4.7-5.24s-5.06-7.48-6.12-8.74a.19.19,0,0,0-.26,0h0a.2.2,0,0,0,0,.27c2.41,2.86,6.18,7.68,6,8.43-.18,1-2.89,4.93-4.34,4.93h0c-1.21,0-4.79-3.43-6.07-4.74a.18.18,0,0,0-.27,0,.19.19,0,0,0,0,.26c.19.2,4.72,4.8,6.34,4.85Z" transform="translate(-1.33 -163.29)" fill="#382b31"/><path id="path715" d="M302.47,321.78a.2.2,0,0,0,.15,0,.19.19,0,0,0,0-.26h0l-7.46-6.39a.16.16,0,0,0-.24,0h0a.2.2,0,0,0,0,.27h0l7.45,6.38A.11.11,0,0,0,302.47,321.78Z" transform="translate(-1.33 -163.29)" fill="#382b31"/><path id="path717" d="M311.93,316.56s-7.56-5.15-9.11-4.57-2,3.1-.78,4.89,8.76,8.32,8.76,8.32Z" transform="translate(-1.33 -163.29)" fill="#ba625a"/><path id="path719" d="M309.5,323.32a.17.17,0,0,0,.14-.08.18.18,0,0,0,0-.26h0q-3.72-2.54-7.18-5.43a3.81,3.81,0,0,1,0-5c1.25-1.27,7.21,2.67,9.35,4.19a.19.19,0,0,0,.26,0h0a.18.18,0,0,0,0-.25c-.84-.62-8.18-5.88-9.89-4.17a4.19,4.19,0,0,0,0,5.53,84.22,84.22,0,0,0,7.25,5.5Z" transform="translate(-1.33 -163.29)" fill="#382b31"/><path id="path721" d="M301.9,324.38a.19.19,0,0,0,.16-.11,6.66,6.66,0,0,1,3.62-3.62.19.19,0,0,0,.12-.23h0a.19.19,0,0,0-.23-.12,6.94,6.94,0,0,0-3.85,3.82.2.2,0,0,0,.09.25Z" transform="translate(-1.33 -163.29)" fill="#382b31"/><path id="path723" d="M308,311a.2.2,0,0,0,.17-.12.19.19,0,0,0-.12-.24,17.36,17.36,0,0,0-5.2-.89.2.2,0,0,0-.18.2.2.2,0,0,0,.21.18,16.66,16.66,0,0,1,5.05.85Z" transform="translate(-1.33 -163.29)" fill="#382b31"/><path id="path725" d="M379.55,332.54s-21.24,6.06-28.82,10.61c0,0,10.62,44,3,69.78s-30.33,69.78-30.33,69.78a59,59,0,0,1,27.3-10.62l12.14-1.52s16.68-36.29,16.68-77.36Z" transform="translate(-1.33 -163.29)" fill="#6887ff"/><path id="path727" d="M369.51,351.74l-6.18,10.06,16.27,21.28V332.54s-9.83,2.8-18.51,6Z" transform="translate(-1.33 -163.29)" fill="#4f71dc"/><path id="path729" d="M298.76,376.21s.53,4.45,1.68,9.55c.25,1.19.56,2.42.9,3.62,0,.12.06.24.1.36,1.71,6.08,4.32,11.74,7.91,11,2.38-.48,8.12-2.28,14.85-4.5l.38-.13c12-4,26.94-9.23,31.6-10.86a.85.85,0,0,1,.24-.08l.13-.07,1.08-.37s-.12-28.8-6.68-41.18h0c0-.12-.12-.25-.2-.37l-.18.1L318.51,363.7h-.08l-.73.46Z" transform="translate(-1.33 -163.29)" fill="#6887ff"/><path id="path731" d="M321.93,376.72l-6.2-23-19.36,3.09s1.55,21.68,3.87,28.4,21.69-8.52,21.69-8.52Z" transform="translate(-1.33 -163.29)" fill="#6887ff"/><path id="path733" d="M296.66,361.8h0l19.74-4.45a.19.19,0,0,0,.21-.17.29.29,0,0,0,0-.09.18.18,0,0,0-.22-.15h0l-19.75,4.45a.18.18,0,0,0-.13.22.17.17,0,0,0,.15.19Z" transform="translate(-1.33 -163.29)" fill="#f5d9d6"/><path id="path735" d="M298,358.55a.78.78,0,0,0,.78.78.78.78,0,1,0-.78-.78Z" transform="translate(-1.33 -163.29)" fill="#f5d9d6"/><path id="path737" d="M361,471a.18.18,0,0,0,.19-.12A336.66,336.66,0,0,0,376.33,411c1.54-9.79,2.67-20.27,1.11-30.62a.19.19,0,0,0-.21-.16h0a.2.2,0,0,0-.16.21c1.61,10.31.42,20.76-1.11,30.52a337.73,337.73,0,0,1-15.16,59.8.18.18,0,0,0,.09.23H361Z" transform="translate(-1.33 -163.29)" fill="#f5d9d6"/><path id="path739" d="M371.35,390.57a2,2,0,1,0,2-2,2,2,0,0,0-2,2Z" transform="translate(-1.33 -163.29)" fill="#6887ff" opacity="0.36" style="isolation:isolate"/><path id="path741" d="M370.35,405.29a2,2,0,1,0,2-2h0a2,2,0,0,0-2,2Z" transform="translate(-1.33 -163.29)" fill="#6887ff" opacity="0.36" style="isolation:isolate"/><path id="path743" d="M368,420.19a2,2,0,1,0,2.06-2h0a2,2,0,0,0-2.05,2Z" transform="translate(-1.33 -163.29)" fill="#6887ff" opacity="0.36" style="isolation:isolate"/><path id="path745" d="M365.51,434.34a2,2,0,1,0,2-2,2,2,0,0,0-2,2Z" transform="translate(-1.33 -163.29)" fill="#6887ff" opacity="0.36" style="isolation:isolate"/><path id="path747" d="M360.86,448.86a2,2,0,1,0,2-2,2,2,0,0,0-2,2Z" transform="translate(-1.33 -163.29)" fill="#6887ff" opacity="0.36" style="isolation:isolate"/><path id="path749" d="M355,464.05a2,2,0,1,0,2-2,2,2,0,0,0-2,2Z" transform="translate(-1.33 -163.29)" fill="#6887ff" opacity="0.36" style="isolation:isolate"/><path id="path751" d="M318.48,363.66c-1.42,4.86-3.23,13.07-1.88,20.22,0,0,2.95-15.16,6.09-22.89Z" transform="translate(-1.33 -163.29)" fill="#4f71dc"/><path id="path753" d="M357.52,380.58c-.07-2.19-.22-5.09-.48-8.35a5.81,5.81,0,0,0-.6-1.71,36,36,0,0,1-.32,4.86,29.69,29.69,0,0,1-.93,4.48c-.67-2.67-2.46-4.93-3.74-7.38a84.85,84.85,0,0,1,2.9,13.36l1.83-.64a5.5,5.5,0,0,0,1.14-1.76,25,25,0,0,0,.2-2.86Z" transform="translate(-1.33 -163.29)" fill="#4f71dc"/><path id="path755" d="M352.53,358.06c-.45-2.83-.89-5.66-1.34-8.49a26.81,26.81,0,0,1-.45-6.32v-.1l-.19.11-2.51,1.6a30.58,30.58,0,0,0,4.49,13.2Z" transform="translate(-1.33 -163.29)" fill="#4f71dc"/></g></g></svg>