<svg id="svg8" xmlns="http://www.w3.org/2000/svg" xmlns:xlink="http://www.w3.org/1999/xlink" viewBox="0 0 584.61 587.12"><defs><linearGradient id="linear-gradient" x1="-807.1" y1="789.44" x2="-787.12" y2="800" gradientTransform="translate(-627.59 1110.02) rotate(-172.52) scale(1.23)" gradientUnits="userSpaceOnUse"><stop offset="0" stop-color="#fb9d89" stop-opacity="0"/><stop offset="1" stop-color="#f77" stop-opacity="0.5"/></linearGradient><linearGradient id="linear-gradient-2" x1="472.44" y1="710.24" x2="462.53" y2="720.4" gradientTransform="matrix(1.23, 0, 0, -1.23, -128.43, 1144.74)" xlink:href="#linear-gradient"/><linearGradient id="linear-gradient-3" x1="-0.43" y1="734.99" x2="20.24" y2="745.93" gradientTransform="matrix(1.23, 0, 0, -1.23, 118.89, 1281.12)" xlink:href="#linear-gradient"/><linearGradient id="linear-gradient-4" x1="38.41" y1="737.13" x2="28.82" y2="746.95" gradientTransform="matrix(1.23, 0, 0, -1.23, 118.89, 1281.12)" xlink:href="#linear-gradient"/></defs><g id="layer1"><g id="g1571"><g id="g1270"><path id="path22" d="M572,299c-10.57-4.77-17.93,4.31-17.93,4.31s.67-10.63-9-12.62-13.29,9.3-13.29,9.3-7.31-16.27-19.61-11.28-7.63,22.58-7.63,22.58-5.66-5.31-11.3-4.94-6.64,13.94-6.64,13.94H590.69s-4.75-15-18.72-21.29Z" transform="translate(-6.09 -131.05)" fill="#ede3d9"/><path id="path28" d="M428.84,172.93s4-11.64,13.52-14.57S457,166.73,457,166.73s-2.32-16.4,10.1-18.61,17.29,13.74,17.29,13.74,3.5-6.8,11.11-1.86a129.56,129.56,0,0,1,15.17,12.07Z" transform="translate(-6.09 -131.05)" fill="#ede3d9"/><path id="path35" d="M557,389a3.9,3.9,0,1,1-3.9-3.9A3.89,3.89,0,0,1,557,389Z" transform="translate(-6.09 -131.05)" fill="#1a76e8"/><polygon id="polygon57" points="540.25 377.62 536.79 374.29 542.82 360.43 551.35 364.46 540.25 377.62" fill="#1a76e8"/><path id="path77" d="M491.92,208.74a3.9,3.9,0,1,0,3.9-3.91,3.89,3.89,0,0,0-3.9,3.91Z" transform="translate(-6.09 -131.05)" fill="#1a76e8"/><path id="path93" d="M526,182.13a2.44,2.44,0,1,0,0-.07Z" transform="translate(-6.09 -131.05)" fill="#26d474"/><polygon id="polygon101" points="567.76 148.54 564.63 144.9 571.95 131.69 580.05 136.49 567.76 148.54" fill="#1a76e8"/><path id="path103" d="M491,369.26a2.43,2.43,0,1,0,0-.08Z" transform="translate(-6.09 -131.05)" fill="#26d474"/><polygon id="polygon107" points="541.9 223.08 538.77 219.44 546.08 206.22 554.19 211.03 541.9 223.08" fill="#1a76e8"/><polygon id="polygon109" points="388.64 279.67 384.35 281.83 373.31 271.52 379.94 264.82 388.64 279.67" fill="#ffd417"/><polygon id="polygon111" points="526.26 311.02 521.95 313.19 510.91 302.88 517.55 296.17 526.26 311.02" fill="#ffd417"/><polygon id="polygon117" points="486.27 457.53 490.71 459.38 501.01 448.33 493.92 442.11 486.27 457.53" fill="#1a76e8"/><polygon id="polygon119" points="456.53 71.89 452.78 74.92 439.81 67.18 444.87 59.22 456.53 71.89" fill="#1a76e8"/><polygon id="polygon125" points="520.05 13.73 523.85 13.08 526.06 1.15 518.58 0 520.05 13.73" fill="#ffd417"/><polygon id="polygon131" points="412.89 90.29 408.48 92.21 398.03 81.29 405.03 74.98 412.89 90.29" fill="#eb2d40"/><path id="path153" d="M464.65,276.24l-30.71,60.05-19.54-4.64,3-20-6.1,19.28-8.94-2.11,2.66-9.94c2.67-10,7.28-9.77,10.84-16s-1.42-11.36,5.51-24.37,12.42-9,20.77-14.18a16.45,16.45,0,0,0,8.17-13.41Z" transform="translate(-6.09 -131.05)" fill="#42353b"/><path id="path155" d="M495.41,219.28a11.26,11.26,0,0,1,7.84,3.29,21.28,21.28,0,0,1,4.71,7.29,19.21,19.21,0,0,1,1.68,6.79,9.53,9.53,0,0,1-2.13,6.53,10.57,10.57,0,0,1-3.7,2.58c-1.95.92-4.31,1.46-6.18.41a7.46,7.46,0,0,1-2.37-2.47c-3.69-5.59-13.06-24,.15-24.42Z" transform="translate(-6.09 -131.05)" fill="#42353b"/><path id="path157" d="M535.64,331.44s-2.47.95-6.44,2.36c-2.12-5.23-7.24-17.29-11.62-23.08l5.28,25.34c-11.73,4.13-28.19,9.58-34.11,9.95-9.6.59-32.81-118.41-32.81-118.41s6.65-8.18,19.66-6,18.35,7.95,20,14.82-.82,15.88,1.31,20.13,10.18,2.72,13.49,13.26-1.89,17.64,4.39,23,14.32,5.1,17.88,20.84,3,17.87,3,17.87Z" transform="translate(-6.09 -131.05)" fill="#42353b"/><path id="path159" d="M484.79,224.14s8.46.38,12.25,11.51-.91,17.14,2.26,23.14a33.16,33.16,0,0,0,6.38,8.79l-10.44-6.95-2.71-11.22Z" transform="translate(-6.09 -131.05)" fill="#42353b"/><path id="path161" d="M493.34,336.3l-14,34.51-6-.32c.6-2.47,1.43-4.87,2.23-7.28q3.57-10.84,6.34-22c.53-2.1,1-8.33,2.84-9.12s6.38,1.59,8.48,2.94Z" transform="translate(-6.09 -131.05)" fill="#6887ff" opacity="0.27" style="isolation:isolate"/><path id="path163" d="M498.23,424.55a46.25,46.25,0,0,1-2.29-4.56c-3.7-7.63-9.56-13.9-14.57-20.71s-9.31-14.78-8.94-23.18a27.18,27.18,0,0,1,.53-4c.1-.52.22-1,.35-1.56l6,.33c-.32,14,5.05,11.55,12.22,30a102.16,102.16,0,0,1,5.88,19.45h0a23,23,0,0,1,.81,4.21Z" transform="translate(-6.09 -131.05)" fill="#6887ff" opacity="0.27" style="isolation:isolate"/><path id="path165" d="M489.73,594a3,3,0,0,1-1.11,0,3.39,3.39,0,0,1-.51-.17c-.87-.39-1.89-1.35-2.47-3.63s-1.39-6.25-2.47-10.45c0-.12-.05-.23-.08-.35-.61-2.26-1.24-4.54-1.9-6.54a2.06,2.06,0,0,0-.12-.35,36.48,36.48,0,0,0-1.49-3.88l-.15-.33-.32-.58a21.84,21.84,0,0,1-1.23-2.47c-.06-.1-.13-.22-.18-.32-1.75-3.47-3-6.48-3-6.48l5.2-13.65h0v-.17l.16-.11a14.06,14.06,0,0,1,14.52-1l.41.19c.54.27,1.11.6,1.68.94a2.17,2.17,0,0,1,1,1.68c.27,3.87,1.16,16.94.66,22.1-.54,6.08-2,25.78-8.62,25.53Z" transform="translate(-6.09 -131.05)" fill="#a66cde"/><path id="path167" d="M493.88,586.77c-.79,2.3-2,5.14-4.46,6.67a8,8,0,0,1-.8.47,3.05,3.05,0,0,1-.51-.17,6.69,6.69,0,0,0,1.13-.58c2.34-1.49,3.53-4.25,4.31-6.5a48.33,48.33,0,0,0,1.53-5.54,1.28,1.28,0,0,0,.07-.34c1.54-7.3,1.57-14.93,1.42-22.22,0-1.88-.09-3.71-.23-5.57a45,45,0,0,0-.78-5.66,1.23,1.23,0,0,0-.08-.33,34.59,34.59,0,0,0-.84-3.51l.41.2c.31,1.13.59,2.27.8,3.42a44.31,44.31,0,0,1,.84,5.85c.14,1.84.19,3.71.23,5.6.15,7.33.11,15-1.46,22.4h0v.09a45.26,45.26,0,0,1-1.58,5.72Z" transform="translate(-6.09 -131.05)" fill="#f5d9d6"/><path id="path169" d="M485,546.34c-2.89-.75-5.05-1.57-5.09-1.58a.17.17,0,0,1-.11-.2v0a.17.17,0,0,1,.2-.11h0c.1,0,9.78,3.71,15.65,2.54a.19.19,0,0,1,.2.14.18.18,0,0,1-.13.21h0c-3.17.63-7.45-.14-10.74-1Z" transform="translate(-6.09 -131.05)" fill="#f5d9d6"/><path id="path171" d="M483.17,579.66a.18.18,0,0,1-.13-.15.19.19,0,0,1,.14-.2,29.32,29.32,0,0,1,12.22,1.53.18.18,0,0,1,.07.24.18.18,0,0,1-.2.09,29.12,29.12,0,0,0-12-1.51Z" transform="translate(-6.09 -131.05)" fill="#f5d9d6"/><path id="path173" d="M487.32,562.22a.17.17,0,0,1-.15.18h0a22.56,22.56,0,0,0-9.3,2.81c-.06-.1-.12-.22-.17-.32a23,23,0,0,1,9.47-2.84.18.18,0,0,1,.17.17Z" transform="translate(-6.09 -131.05)" fill="#f5d9d6"/><path id="path175" d="M489.24,565.46a.18.18,0,0,1-.16.18h0a22.3,22.3,0,0,0-9.43,2.91l-.15-.34a23,23,0,0,1,9.59-2.91.18.18,0,0,1,.18.16Z" transform="translate(-6.09 -131.05)" fill="#f5d9d6"/><path id="path177" d="M490.47,569.89a.15.15,0,0,1-.15.17h0a22.2,22.2,0,0,0-9.09,2.71c0-.12-.07-.23-.11-.35a22.48,22.48,0,0,1,9.19-2.7.16.16,0,0,1,.17.15v0Z" transform="translate(-6.09 -131.05)" fill="#f5d9d6"/><path id="path179" d="M465.34,554.65l9.35,3.71a21.41,21.41,0,0,0,4.2-8.65l1.07-5.1-8.33-4.36Z" transform="translate(-6.09 -131.05)" fill="#fb9d89"/><path id="path181" d="M569.5,573.24a2.69,2.69,0,0,1-1.08.23,2.44,2.44,0,0,1-.54,0c-.93-.15-2.16-.82-3.23-2.91s-2.92-5.69-5-9.5c0-.11-.11-.21-.16-.31-1.16-2-2.34-4.08-3.48-5.86a3.28,3.28,0,0,0-.2-.31,37,37,0,0,0-2.47-3.38l-.22-.28c-.16-.18-.32-.33-.46-.49-.64-.67-1.23-1.35-1.86-2l-.24-.26c-2.58-2.93-4.52-5.55-4.52-5.55l1.62-14.51h0v-.17a1,1,0,0,1,.13-.16,14.11,14.11,0,0,1,13.81-4.56l.45.09c.59.14,1.23.3,1.86.49a2.16,2.16,0,0,1,1.39,1.37c1.23,3.71,5.36,16.12,6.17,21.24,1,6,4.57,25.42-1.94,26.84Z" transform="translate(-6.09 -131.05)" fill="#a66cde"/><path id="path183" d="M571.72,565.25c-.18,2.47-.66,5.47-2.64,7.57a8.08,8.08,0,0,1-.66.65,2.44,2.44,0,0,1-.54,0,5.46,5.46,0,0,0,1-.84c1.88-2,2.34-5,2.54-7.41a44.27,44.27,0,0,0,.1-5.76,1.93,1.93,0,0,0,0-.34c-.33-7.41-2.21-14.82-4.17-21.85-.51-1.81-1-3.6-1.62-5.34a49.53,49.53,0,0,0-2.16-5.28,2.11,2.11,0,0,0-.16-.3c-.52-1.09-1.09-2.15-1.7-3.19l.45.09c.58,1,1.13,2,1.64,3.11a47.18,47.18,0,0,1,2.26,5.46c.6,1.74,1.11,3.54,1.62,5.36,2,7.08,3.86,14.53,4.18,22.05h0v.1a43.31,43.31,0,0,1-.1,5.92Z" transform="translate(-6.09 -131.05)" fill="#f5d9d6"/><path id="path185" d="M553,528.31a49.93,49.93,0,0,1-5.33-.26.15.15,0,0,1-.14-.17h0c0-.1.11-.19.18-.16s10.4,1.15,15.8-1.43a.14.14,0,0,1,.21.06h0a.18.18,0,0,1-.07.23h0c-2.93,1.4-7.25,1.72-10.66,1.72Z" transform="translate(-6.09 -131.05)" fill="#f5d9d6"/><path id="path187" d="M559.54,561a.15.15,0,0,1-.16-.11.16.16,0,0,1,.07-.22h0a28.72,28.72,0,0,1,12.19-1.56.16.16,0,0,1,.17.15,0,0,0,0,1,0,0,.16.16,0,0,1-.18.16h0a28.81,28.81,0,0,0-12,1.54Z" transform="translate(-6.09 -131.05)" fill="#f5d9d6"/><path id="path189" d="M559.25,543.11a.15.15,0,0,1-.1.2h0a22.36,22.36,0,0,0-8.31,5l-.24-.26A22.79,22.79,0,0,1,559,543a.18.18,0,0,1,.21.13Z" transform="translate(-6.09 -131.05)" fill="#f5d9d6"/><path id="path191" d="M561.91,545.76a.18.18,0,0,1-.11.22h0a22.52,22.52,0,0,0-8.42,5.17l-.22-.28a22.89,22.89,0,0,1,8.56-5.22.18.18,0,0,1,.21.11Z" transform="translate(-6.09 -131.05)" fill="#f5d9d6"/><path id="path193" d="M564.22,549.75a.18.18,0,0,1-.11.21,21.68,21.68,0,0,0-8.13,4.88,3.28,3.28,0,0,0-.2-.31,22.42,22.42,0,0,1,8.23-4.94.14.14,0,0,1,.2.07.28.28,0,0,1,0,.09Z" transform="translate(-6.09 -131.05)" fill="#f5d9d6"/><path id="path195" d="M536.07,541.28l10,1.23A21.31,21.31,0,0,0,548,533l-.23-5.21-9.16-2.13Z" transform="translate(-6.09 -131.05)" fill="#fb9d89"/><path id="path197" d="M493.34,336.3l-14,34.51q-3.26.75-6.36,1.23c-24.78,3.89-41.34-3.78-41.34-3.78,0-4.73-6.18-23.46-4.45-36.75,1.78-14,18.83-43.59,18.83-43.59h10a38.71,38.71,0,0,0,23.37-1h9.26l4.62,48.16Z" transform="translate(-6.09 -131.05)" fill="#6887ff"/><path id="path199" d="M456,287.91s-17.29,22.83-11.72,28c5.81,5.33,16,.89,22.92-6s12.17-22.92,12.17-22.92-12.72,9.31-18.76,6.71-4.61-5.71-4.61-5.71Z" transform="translate(-6.09 -131.05)" fill="#fbb81b"/><path id="path201" d="M538.84,524l-3.16,19.76s-35.19,2-62.49-.81L463,559.26S401.47,532.93,399.12,518s21.31-88.13,21.31-88.13c3.31-14.05,11.19-61.61,11.19-61.61l41.69,2.23,6,.32c-.32,14,5.05,11.55,12.22,30a102.37,102.37,0,0,1,5.88,19.45h0a23.4,23.4,0,0,1,.81,4.23c2.46,23.26-15.84,80.49-15.84,80.49Z" transform="translate(-6.09 -131.05)" fill="#6887ff"/><path id="path203" d="M475,316.14a2.47,2.47,0,1,1-2.47-2.47h0A2.48,2.48,0,0,1,475,316.14Z" transform="translate(-6.09 -131.05)" fill="#f5d9d6"/><path id="path205" d="M440.8,312.32a2.47,2.47,0,1,1-2.47-2.47h0A2.47,2.47,0,0,1,440.8,312.32Z" transform="translate(-6.09 -131.05)" fill="#f5d9d6"/><path id="path207" d="M434.82,320.4s18.52,2.4,36.79,3.28c0,0-4.77,24.62-24.53,22.33S434.82,320.4,434.82,320.4Z" transform="translate(-6.09 -131.05)" fill="none" stroke="#f5d9d6" stroke-linecap="round" stroke-linejoin="round" stroke-width="0.35"/><path id="path209" d="M431.62,368.26s29.63,6.18,47.7,2.56" transform="translate(-6.09 -131.05)" fill="none" stroke="#f5d9d6" stroke-linecap="round" stroke-linejoin="round" stroke-width="0.35"/><path id="path211" d="M429.42,373.14s31.82,6.3,49.9,2.68" transform="translate(-6.09 -131.05)" fill="none" stroke="#f5d9d6" stroke-linecap="round" stroke-linejoin="round" stroke-width="0.35"/><path id="path213" d="M489.17,335.05s-16.3,33.4-14.22,41.89,21.5,33,19.83,56.29-19,66.6-15.31,74.16,58.84,19.9,58.84,19.9" transform="translate(-6.09 -131.05)" fill="none" stroke="#f5d9d6" stroke-linecap="round" stroke-linejoin="round" stroke-width="0.35"/><path id="path215" d="M461.62,377.12c-.44,9.54,1.52,19.42,6.94,27.28s14.66,13.37,24.2,13" transform="translate(-6.09 -131.05)" fill="none" stroke="#f5d9d6" stroke-linecap="round" stroke-linejoin="round" stroke-width="0.35"/><path id="path217" d="M431.62,413.56l11.49,13.17s-9.28,91.77,0,103.83,30.08,12.35,30.08,12.35" transform="translate(-6.09 -131.05)" fill="none" stroke="#42353b" stroke-linecap="round" stroke-linejoin="round" stroke-width="0.35"/><path id="path219" d="M439,452c-3.26,16.05-6.52,32.25-7.13,48.65a67.81,67.81,0,0,0,1.91,21c1.72,6.08,5.87,12.53,12.2,12.91-6.38-5.44-7.08-14.89-7.17-23.27q-.18-19.2.57-38.4c.5-12.51,2.47-25.93,3-37.89-1.74,3.77-2.51,12.78-3.36,17Z" transform="translate(-6.09 -131.05)" fill="#6887ff" opacity="0.27" style="isolation:isolate"/><path id="path221" d="M377.09,219.28s3.91,37.25,15.63,53.31,37.53,47.76,37.53,47.76L446,287.87s-25.93-18.4-29.84-26.21-25.94-49.74-25.94-49.74Z" transform="translate(-6.09 -131.05)" fill="#fbb81b"/><polygon id="polygon223" points="368.69 67.06 377.93 62.8 384.15 80.92 373.59 86.82 368.69 67.06" fill="#fb9d89"/><path id="path225" d="M374.78,198.11a14,14,0,0,1-3.84-11.59A32.92,32.92,0,0,1,374.78,175s-2.72-.13-3.5-2.13c-1.32-3.44-1.06-9.12.83-11s11.73-2,14.21-.83,3.79,3.71,3.92,7.82,1.06,6.17.47,9-6.7,16-6.7,16Z" transform="translate(-6.09 -131.05)" fill="#fb9d89"/><path id="path227" d="M389.25,177s-1.87-16.88-4.17-14.91-3.19,10.83-2.57,14.91c0,0-5.34,1.6-6.67,5.15" transform="translate(-6.09 -131.05)" fill="none" stroke="#42353b" stroke-linecap="round" stroke-linejoin="round" stroke-width="0.35"/><path id="path229" d="M375.42,160.67a17.88,17.88,0,0,0-1.41,8.2,23.33,23.33,0,0,0,1.41,6.17" transform="translate(-6.09 -131.05)" fill="none" stroke="#42353b" stroke-linecap="round" stroke-linejoin="round" stroke-width="0.35"/><path id="path231" d="M379.44,160.3a20.38,20.38,0,0,0-1.23,7.54,37.44,37.44,0,0,0,1,7.08" transform="translate(-6.09 -131.05)" fill="none" stroke="#42353b" stroke-linecap="round" stroke-linejoin="round" stroke-width="0.35"/><path id="path233" d="M384.2,160.52a28.07,28.07,0,0,0-1.69,8c-.45,5.09-.19,6.1-.19,6.1a59.35,59.35,0,0,1-7.54.42" transform="translate(-6.09 -131.05)" fill="none" stroke="#42353b" stroke-linecap="round" stroke-linejoin="round" stroke-width="0.35"/><path id="path235" d="M488.58,286.92s-.2.39-.53,1.09c-3.25,6.83-19.44,43.48,5.29,48.29,0,0,9.13-16.05,16.31-24.69s46-67.76,46-67.76L540.5,226.56s-33.16,49.29-35.82,52Z" transform="translate(-6.09 -131.05)" fill="#fbb81b"/><polygon id="polygon237" points="555.24 68.73 564.24 73.7 546.21 108.99 535.63 96.9 555.24 68.73" fill="#fb9d89"/><path id="path239" d="M590.22,180.46c-1,3.81-8.53,12.08-10.18,14.93a18,18,0,0,1-6.62,6.39,7.5,7.5,0,0,0-3.3,3.38l-8.78-5.38s-1.54-1.78,0-9.24,4.26-20,6.38-20.25,2.56,8.79,2.61,10.71v.18c0,.11,0,.1.17,0,1.36-1.32,10.08-16.73,12.15-16a8.15,8.15,0,0,1,2.61,2.68l.2.3a35.9,35.9,0,0,1,2.19,3.62,1.41,1.41,0,0,1,.19.34,31.16,31.16,0,0,1,1.74,3.92,1.61,1.61,0,0,0,.12.39,7.85,7.85,0,0,1,.52,4Z" transform="translate(-6.09 -131.05)" fill="#fb9d89"/><path id="path241" d="M571.66,191.71h0a.14.14,0,0,1-.16-.15v0a39.77,39.77,0,0,0-1.33-10.3.17.17,0,0,1,.12-.21.18.18,0,0,1,.22.11h0a41.12,41.12,0,0,1,1.34,10.41.17.17,0,0,1-.19.16Z" transform="translate(-6.09 -131.05)" fill="#42353b"/><path id="path243" d="M585.46,168.17l-9.88,13.58h-.25a.18.18,0,0,1,0-.24l9.88-13.58a1.88,1.88,0,0,1,.25.24Z" transform="translate(-6.09 -131.05)" fill="#42353b"/><path id="path245" d="M587.84,172.13,579,183.64a.17.17,0,0,1-.15.07h-.1a.21.21,0,0,1,0-.26l8.93-11.64a1.87,1.87,0,0,1,.15.32Z" transform="translate(-6.09 -131.05)" fill="#42353b"/><path id="path247" d="M589.7,176.46,582,186.59a.26.26,0,0,1-.15.07.11.11,0,0,1-.11,0,.15.15,0,0,1,0-.22h0l7.91-10.31a3.09,3.09,0,0,0,.1.34Z" transform="translate(-6.09 -131.05)" fill="#42353b"/><line id="line249" x1="493.91" y1="178.08" x2="485.46" y2="204.84" stroke-width="0.35" stroke="#42353b" stroke-linecap="round" stroke-linejoin="round" fill="none"/><polyline id="polyline251" points="420.8 170.09 424.16 189.35 425.53 165.83" fill="none" stroke="#42353b" stroke-linecap="round" stroke-linejoin="round" stroke-width="0.35"/><line id="line253" x1="530.91" y1="100.68" x2="546.41" y2="117.58" stroke-width="0.35" stroke="#42353b" stroke-linecap="round" stroke-linejoin="round" fill="none"/><line id="line255" x1="372.15" y1="96.69" x2="388" y2="88.28" stroke-width="0.35" stroke="#42353b" stroke-linecap="round" stroke-linejoin="round" fill="none"/><path id="path257" d="M486.49,254a2.33,2.33,0,0,1-.1.44,7.58,7.58,0,0,1-.28,1.14,60.3,60.3,0,0,1-4.52,11.12,32.49,32.49,0,0,0-3.28,10.48,23.3,23.3,0,0,0,0,5.66c.14,1.11.7,2.13.93,3.22.65,2.84-3.32,5.46-5.35,6.85a22.67,22.67,0,0,1-9.55,3.71,19,19,0,0,1-5.22,0c-3-.41-5.83-1.36-4.77-4.94.47-1.58,1.45-3,1.8-4.58.31-1.43.47-2.89.68-4.34a3.67,3.67,0,0,1,.09-.53,1.93,1.93,0,0,0,0-.34v-.1a3.11,3.11,0,0,1,.1-.57,3.7,3.7,0,0,1,.07-.57,4.86,4.86,0,0,0,0-.54,1,1,0,0,0,0-.24,4.43,4.43,0,0,0,0-2.11v-.16h0a15.16,15.16,0,0,1-4.15-.89c-2.93-1.49-4.35-4.44-5.07-7.57,0-.15-.08-.29-.09-.43a35.78,35.78,0,0,1-.68-4.94,61.24,61.24,0,0,1,.09-10.49,3,3,0,0,1,.08-.84c.15-1.33.35-2.66.58-4v-.21c.08-.45.18-.91.3-1.39l.18-.72V246l.56-2.15.12-.48.06-.17a2.46,2.46,0,0,1,.23-.77,7.15,7.15,0,0,1,.28-.81,24.6,24.6,0,0,1,5.32-9,19.55,19.55,0,0,1,13.8-6.05,17.13,17.13,0,0,1,4.15.49,4.41,4.41,0,0,1,.9.23l.45.15c.3.11.58.19.92.32a19,19,0,0,1,10,9c1.41,2.66,1.73,6.17,1.87,9.2a32.47,32.47,0,0,1-.46,8.06Z" transform="translate(-6.09 -131.05)" fill="#fb9d89"/><path id="path259" d="M470.06,274.24s-6.67,8.24-13.25,8.57a20,20,0,0,0,.5-4.94v-.07a.08.08,0,0,0,0-.09h0s9.7-1.35,12.75-3.47Z" transform="translate(-6.09 -131.05)" fill="#f77"/><path id="path261" d="M483.17,257.8c.74-.63,3.86-5.89,7.86-4.23s2.58,11.84-3,13.5-7.41-1.24-7.41-1.24Z" transform="translate(-6.09 -131.05)" fill="#fb9d89"/><path id="path263" d="M486.12,257.29c.57-1,1.35-2.15,2.47-2.18a2.59,2.59,0,0,1,2.05,1.31,6.59,6.59,0,0,1-.28,7,4.92,4.92,0,0,1-2.27,2.08,2.68,2.68,0,0,1-2.92-.49,3.4,3.4,0,0,1-.78-1.95" transform="translate(-6.09 -131.05)" fill="none" stroke="#42353b" stroke-linecap="round" stroke-linejoin="round" stroke-width="0.35"/><path id="path265" d="M490,255.62s-3.41,2.2-5.16,8.73" transform="translate(-6.09 -131.05)" fill="none" stroke="#42353b" stroke-linecap="round" stroke-linejoin="round" stroke-width="0.35"/><path id="path267" d="M486.4,254.45a15.54,15.54,0,0,0-4.65-2.21h0l-1.15-11.49s.17,8.21.07,11.11c-1.42-.56-3-1.3-4.76-2.06-.21-3.9-.43-11.48.56-15.27a110.91,110.91,0,0,0-3.92,14,31.76,31.76,0,0,0-3.07-.86c-2.37-.55-7.21-1.24-11.77-2,.26-3.3.94-9.87,2.41-13.37a65.09,65.09,0,0,0-5.68,12.87c-4.1-.58-7.41-1-7.41-1a29.89,29.89,0,0,1,9-16.61c7.81-7.41,21.2-2.37,21.2-2.37s5.57,1.07,9.25,7.69-.06,21.53-.06,21.53Z" transform="translate(-6.09 -131.05)" fill="#42353b"/><path id="path269" d="M482.43,260.25a.47.47,0,0,0,.08.3c.18.22.54,0,.7-.25,1.38-1.94,2.21-4.22,3.7-6.06a10,10,0,0,0,1.37-1.82,2.14,2.14,0,0,0,0-2.16,2.29,2.29,0,0,0-1.55-.8,3.21,3.21,0,0,0-3.88,2.39,1.59,1.59,0,0,0-.06.3,49.78,49.78,0,0,0-.36,8.1Z" transform="translate(-6.09 -131.05)" fill="#42353b"/><path id="path271" d="M454.77,263a.2.2,0,0,0,.15,0,.14.14,0,0,0,0-.19,5.18,5.18,0,0,1-1.39-1.52,1.05,1.05,0,0,1-.19-.49c0-.38.32-.69.65-1l.24-.2c1.23-1.12,1.23-2.95,1.16-4.42a35.51,35.51,0,0,0-.56-4.59.12.12,0,0,0-.15-.11h0a.11.11,0,0,0-.11.13v0a36.48,36.48,0,0,1,.56,4.55A5.24,5.24,0,0,1,454,259.4l-.22.19a1.52,1.52,0,0,0-.74,1.24,1.16,1.16,0,0,0,.23.6,5.21,5.21,0,0,0,1.46,1.57Z" transform="translate(-6.09 -131.05)" fill="#42353b"/><path id="path273" d="M450.55,251.38a1.23,1.23,0,1,0,1.47-.93h0A1.23,1.23,0,0,0,450.55,251.38Z" transform="translate(-6.09 -131.05)" fill="#42353b"/><path id="path275" d="M463.85,253.45a1.36,1.36,0,0,0,.37,1.9,1.38,1.38,0,0,0,1.9-.37,1.51,1.51,0,0,0,.2-.45,1.43,1.43,0,0,0-.72-1.85,1.37,1.37,0,0,0-1.75.77Z" transform="translate(-6.09 -131.05)" fill="#42353b"/><path id="path277" d="M458.48,267.81a8.23,8.23,0,0,1-4.4-.23" transform="translate(-6.09 -131.05)" fill="none" stroke="#42353b" stroke-linecap="round" stroke-linejoin="round" stroke-width="0.28"/><path id="path279" d="M461.4,264.83a10.53,10.53,0,0,1-10,.12" transform="translate(-6.09 -131.05)" fill="none" stroke="#42353b" stroke-linecap="round" stroke-linejoin="round" stroke-width="0.33"/><path id="path281" d="M463.12,263.31a8.57,8.57,0,1,0,9.59-7.41h0a8.56,8.56,0,0,0-9.58,7.4Z" transform="translate(-6.09 -131.05)" fill="url(#linear-gradient)"/><path id="path283" d="M452.93,262a8.5,8.5,0,0,1-1.15,3.31,8.58,8.58,0,0,1-3.84,3.41,37.37,37.37,0,0,1-.68-4.94,61.37,61.37,0,0,1,.09-10.5v-.4a8.54,8.54,0,0,1,5.58,9.12Z" transform="translate(-6.09 -131.05)" fill="url(#linear-gradient-2)"/><path id="path285" d="M462.48,248.11a5.42,5.42,0,0,1,2.59-.88,7.42,7.42,0,0,1,2.77.28,7.73,7.73,0,0,1,2.47,1.23,4.29,4.29,0,0,1,1.69,2.47.45.45,0,0,1-.34.53.38.38,0,0,1-.33,0l-.22-.12a14.58,14.58,0,0,0-1.88-1c-.67-.27-1.41-.58-2.07-.78a24.11,24.11,0,0,0-4.45-.93h0a.4.4,0,0,1-.32-.45.34.34,0,0,1,.08-.37Z" transform="translate(-6.09 -131.05)" fill="#42353b"/><path id="path287" d="M454.46,247a.47.47,0,0,1-.33,0l-.25-.09a14.2,14.2,0,0,0-2.05-.48,20.37,20.37,0,0,0-2.2-.29h-1.1V246l.56-2.14a3.53,3.53,0,0,1,.65,0,7.92,7.92,0,0,1,2.67.65,4.09,4.09,0,0,1,2.24,1.91.43.43,0,0,1-.15.58l0,0Z" transform="translate(-6.09 -131.05)" fill="#42353b"/></g><g id="g1369"><path id="path26" d="M91.45,428.07c-10.57-4.78-17.93,4.32-17.93,4.32s.67-10.63-9-12.63-13.24,9.31-13.24,9.31-7.41-16.29-19.65-11.3S24,440.36,24,440.36s-5.66-5.31-11.3-4.94-6.64,13.93-6.64,13.93h104.1s-4.77-15-18.74-21.28Z" transform="translate(-6.09 -131.05)" fill="#ede3d9"/><path id="path30" d="M122.66,302.11s4-11.64,13.51-14.57,14.67,8.37,14.67,8.37-2.31-16.4,10.1-18.61S178.23,291,178.23,291s3.54-6.86,11.17-1.88a127.73,127.73,0,0,1,15.18,12.06Z" transform="translate(-6.09 -131.05)" fill="#ede3d9"/><path id="path37" d="M175.66,687.53a3.92,3.92,0,1,1-3.93-3.91h0A3.92,3.92,0,0,1,175.66,687.53Z" transform="translate(-6.09 -131.05)" fill="#1a76e8"/><path id="path39" d="M190.7,318.15a2.47,2.47,0,1,1-2.54-2.39h.07A2.47,2.47,0,0,1,190.7,318.15Z" transform="translate(-6.09 -131.05)" fill="#eb2d40"/><circle id="circle41" cx="75.88" cy="158.56" r="2.41" fill="#26d474"/><path id="path43" d="M225.44,368.93a3.91,3.91,0,1,1-3.91-3.91A3.9,3.9,0,0,1,225.44,368.93Z" transform="translate(-6.09 -131.05)" fill="#26d474"/><circle id="circle45" cx="36.23" cy="397.41" r="3.9" fill="#26d474"/><polygon id="polygon47" points="48.91 210.73 52.05 207.09 44.73 193.88 36.63 198.68 48.91 210.73" fill="#1a76e8"/><polygon id="polygon49" points="67.34 358.88 71.76 360.79 82.19 349.86 75.18 343.55 67.34 358.88" fill="#26d474"/><polygon id="polygon51" points="197.38 574.07 201.75 576.08 212.43 565.38 205.57 558.93 197.38 574.07" fill="#1a76e8"/><polygon id="polygon53" points="239.84 416.77 244.21 418.77 254.89 408.09 248.02 401.63 239.84 416.77" fill="#1a76e8"/><polygon id="polygon63" points="63.27 227.09 67.99 228.02 75.88 215.14 67.69 210.45 63.27 227.09" fill="#eb2d40"/><polygon id="polygon65" points="67.65 467.66 70.82 464.03 63.61 450.75 55.46 455.49 67.65 467.66" fill="#eb2d40"/><polygon id="polygon67" points="42.96 278.25 39.98 280.71 29.5 274.61 33.5 268.19 42.96 278.25" fill="#ffd417"/><polygon id="polygon69" points="237.19 284.77 241.87 285.9 250.27 273.35 242.29 268.34 237.19 284.77" fill="#ffd417"/><polygon id="polygon71" points="249.78 498.59 254.48 497.62 256.72 482.67 247.35 481.55 249.78 498.59" fill="#ffd417"/><polygon id="polygon75" points="104.27 547.99 107.1 544.1 98.75 531.51 91.05 536.96 104.27 547.99" fill="#ffd417"/><path id="path83" d="M260.27,452a2.41,2.41,0,1,0,2.41-2.41,2.4,2.4,0,0,0-2.41,2.41Z" transform="translate(-6.09 -131.05)" fill="#26d474"/><path id="path89" d="M245,498.39a2.44,2.44,0,1,0,0-.07Z" transform="translate(-6.09 -131.05)" fill="#1a76e8"/><polygon id="polygon133" points="246.43 215.66 250.31 212.81 246.15 198.28 237.17 201.15 246.43 215.66" fill="#eb2d40"/><polygon id="polygon289" points="44.55 486.55 45.1 496.7 56.28 497.47 55.49 484.81 44.55 486.55" fill="#fb9d89"/><path id="path291" d="M33.69,658.57l-.3.18a1.13,1.13,0,0,1-1,.23c-4.11-1.81-6-12.35-3.71-22.77s.41-19.32,4.78-22.92a4.51,4.51,0,0,1,3.35-.68h.48a36.23,36.23,0,0,1,9.09,2.9l.52.23c2.17,1,3.7,1.79,3.7,1.79l.62,10.22s-1.06,2.31-2.47,5.43a3.18,3.18,0,0,0-.16.32c-.41.94-.85,1.94-1.23,3,0,.1-.12.22-.16.32l-1,2.26c-.17.41-.4.89-.63,1.39,0,.1-.11.21-.17.32a117.42,117.42,0,0,1-6,10.55,2.2,2.2,0,0,0-.18.28,30.9,30.9,0,0,1-5.6,7Z" transform="translate(-6.09 -131.05)" fill="#f77"/><path id="path293" d="M33.69,658.57l-.3.18A13.58,13.58,0,0,1,31.14,654a30.8,30.8,0,0,1-1.16-9v-.21c0-.87.08-1.72.16-2.56.19-1.75.53-3.5.88-5.21s.75-3.83.94-5.78c.11-1.44.12-2.94.13-4.38a27.17,27.17,0,0,1,1-8.74,13.74,13.74,0,0,1,3.64-5.57h.48a13.46,13.46,0,0,0-3,3.86,1.35,1.35,0,0,0-.17.34h0a13.09,13.09,0,0,0-.61,1.45,27.44,27.44,0,0,0-1,8.65,41,41,0,0,1-.16,4.42,52.06,52.06,0,0,1-.94,5.81c-.32,1.7-.66,3.45-.86,5.19-.09.84-.15,1.69-.16,2.54v.4h0a30.06,30.06,0,0,0,1.16,8.64,13.29,13.29,0,0,0,2.19,4.66Z" transform="translate(-6.09 -131.05)" fill="#fff"/><path id="path295" d="M48.58,633.5c-.37-.35-.75-.69-1.15-1a11.23,11.23,0,0,0-4.75-2.38.28.28,0,0,1-.08-.06.14.14,0,0,1,0-.15.16.16,0,0,1,.17-.15h0a11.71,11.71,0,0,1,4.94,2.47,12.27,12.27,0,0,1,1.1.95A2.6,2.6,0,0,0,48.58,633.5Z" transform="translate(-6.09 -131.05)" fill="#fff"/><path id="path297" d="M47.12,636.8c-.25-.24-.52-.45-.78-.66a11.1,11.1,0,0,0-4.73-2.38h-.08a.15.15,0,0,1,0-.16.18.18,0,0,1,.19-.15h0a12.06,12.06,0,0,1,4.94,2.47c.24.19.49.4.72.61a.43.43,0,0,0-.26.27Z" transform="translate(-6.09 -131.05)" fill="#fff"/><path id="path299" d="M45.34,640.77a12.26,12.26,0,0,0-.94-.82,11.35,11.35,0,0,0-4.73-2.39.09.09,0,0,1-.07,0,.15.15,0,0,1,0-.16.18.18,0,0,1,.21-.13,11.6,11.6,0,0,1,4.88,2.47c.29.24.6.5.89.77-.13,0-.18.15-.24.26Z" transform="translate(-6.09 -131.05)" fill="#fff"/><path id="path301" d="M46.86,615.74a40.81,40.81,0,0,1-12.79,1.1h-.14a.15.15,0,0,1,0-.13.2.2,0,0,1,.19-.18h.21a40.37,40.37,0,0,0,12.1-1Z" transform="translate(-6.09 -131.05)" fill="#fff"/><path id="path303" d="M39.22,651.6a59.66,59.66,0,0,0-8.89-6.32,2.61,2.61,0,0,0-.28-.17h0a.18.18,0,0,1,0-.2h0a.14.14,0,0,1,.21,0h0l.14.08a59.83,59.83,0,0,1,9.05,6.43l-.23.18Z" transform="translate(-6.09 -131.05)" fill="#fff"/><polygon id="polygon305" points="127.17 543.79 134.25 551.07 143.18 544.28 134.25 535.27 127.17 543.79" fill="#fb9d89"/><path id="path307" d="M147.47,716.84a3.37,3.37,0,0,1-.1.34c-.14.44-.34.74-.62.81-4.29,1.36-12.63-5.28-17.81-14.67s-12.35-14.82-11.48-20.4a4.58,4.58,0,0,1,2.06-2.72h0l.4-.27a36.22,36.22,0,0,1,8.74-3.83l.54-.17c2.26-.69,4-1.09,4-1.09l7.17,7.29s.73,2.47,1.74,5.71a2.19,2.19,0,0,0,.1.34c.31,1,.62,2,1,3.09a.54.54,0,0,0,.08.34L144,694c.14.43.29.94.44,1.48a2,2,0,0,1,.09.35A113.79,113.79,0,0,1,147,707.63a1.82,1.82,0,0,0,0,.33,31.15,31.15,0,0,1,.47,8.88Z" transform="translate(-6.09 -131.05)" fill="#f77"/><path id="path309" d="M147.47,716.84a3.37,3.37,0,0,1-.1.34,13.68,13.68,0,0,1-4.81-2.09,30.16,30.16,0,0,1-6.76-6l-.15-.16c-.56-.66-1.06-1.33-1.56-2-1-1.43-1.9-3-2.76-4.49s-2-3.37-3.1-4.94c-.87-1.16-1.84-2.3-2.79-3.4a27,27,0,0,1-4.94-7.25,13.75,13.75,0,0,1-.94-6.59h0L120,680a13.27,13.27,0,0,0,.29,4.94,2.41,2.41,0,0,0,.07.37h0a13.63,13.63,0,0,0,.51,1.48,27.06,27.06,0,0,0,4.94,7.14c.94,1.11,1.92,2.24,2.79,3.43a55,55,0,0,1,3.13,5c.87,1.49,1.76,3,2.76,4.47.48.69,1,1.37,1.55,2l.24.3h0a30,30,0,0,0,6.57,5.75,13.22,13.22,0,0,0,4.67,2Z" transform="translate(-6.09 -131.05)" fill="#fff"/><path id="path311" d="M142.18,688.17a9.77,9.77,0,0,0-1.53,0,11.25,11.25,0,0,0-5.14,1.32h-.1a.14.14,0,0,1-.13-.09.15.15,0,0,1,0-.22h0a11.7,11.7,0,0,1,5.31-1.36,8.66,8.66,0,0,1,1.44,0,2.75,2.75,0,0,0,.15.36Z" transform="translate(-6.09 -131.05)" fill="#fff"/><path id="path313" d="M143.24,691.6h-1a11.41,11.41,0,0,0-5.14,1.32H137a.18.18,0,0,1-.15-.08.2.2,0,0,1,0-.25,12.08,12.08,0,0,1,5.3-1.36h.93a1.48,1.48,0,0,1,.15.37Z" transform="translate(-6.09 -131.05)" fill="#fff"/><path id="path315" d="M144.53,695.76h-1.24a11.54,11.54,0,0,0-5.14,1.32h-.08a.16.16,0,0,1-.15-.08.18.18,0,0,1,0-.24,11.78,11.78,0,0,1,5.3-1.36,11.42,11.42,0,0,1,1.17,0c.05.12.1.24.14.36Z" transform="translate(-6.09 -131.05)" fill="#fff"/><path id="path317" d="M129.2,675.92a41.09,41.09,0,0,1-8.93,9.26h0a.14.14,0,0,1-.09,0,.17.17,0,0,1-.14-.06.19.19,0,0,1,0-.26l.17-.12a40.91,40.91,0,0,0,8.46-8.72Z" transform="translate(-6.09 -131.05)" fill="#fff"/><path id="path319" d="M147.05,708a59.19,59.19,0,0,0-10.87,1.1h-.32a.16.16,0,0,1-.15-.14h0a.18.18,0,0,1,.15-.17H136a61.17,61.17,0,0,1,11.05-1.12,1.82,1.82,0,0,0,0,.33Z" transform="translate(-6.09 -131.05)" fill="#fff"/><path id="path321" d="M203.53,583.12c-5.93-20.6-26.69-83.34-26.69-83.34l-28.57-.31-42.51-5.27-5.27,35.63s8.86,46,16.91,78.28c-36.58.19-60,5.09-60,5.09v21c9.53,2.77,61.15,5.82,74.82,6.58a13.22,13.22,0,0,0,2.81.15h.52c8-.7,17.66-8.29,18.9-24,.64-8.12,1.48-26.27,2.27-45.87,5.85,13.35,17.2,39.72,17.2,39.72s-26.64,25.93-35.52,53.63l12,12.07s55.88-41.55,58.72-65.7c0,0,.34-7-5.57-27.65Z" transform="translate(-6.09 -131.05)" fill="#3b57d2"/><line id="line323" x1="153.06" y1="400.09" x2="150.63" y2="439.96" stroke-width="0.35" stroke="#42353b" stroke-linecap="round" stroke-linejoin="round" fill="none"/><path id="path325" d="M160.6,500s2.47,27.77,1.6,29.79-4.26,1.09-4.26,1.09" transform="translate(-6.09 -131.05)" fill="none" stroke="#42353b" stroke-linecap="round" stroke-linejoin="round" stroke-width="0.35"/><circle id="circle327" cx="159.28" cy="374.6" r="1.99" fill="#fff"/><path id="path329" d="M109,500.6c-2.37,34.74,8.39,68.84,13.75,103.24.43,2.79.65,6.11-1.47,8a8.72,8.72,0,0,1-5.21,1.53q-29.44,2-59,1.44" transform="translate(-6.09 -131.05)" fill="none" stroke="#42353b" stroke-miterlimit="23.7" stroke-width="0.35"/><path id="path331" d="M157.52,562.09l19.25,44.45a9.35,9.35,0,0,1,.74,2.16c.44,2.68-1.42,5.13-3.15,7.22q-19,22.77-35.58,47.34" transform="translate(-6.09 -131.05)" fill="none" stroke="#42353b" stroke-miterlimit="23.7" stroke-width="0.35"/><path id="path333" d="M110,533c4.08-1.79,7.67-6.34,9.53-10.39,3.14-6.89,4.85-14.67,3.34-22.09" transform="translate(-6.09 -131.05)" fill="none" stroke="#42353b" stroke-miterlimit="23.7" stroke-width="0.35"/><path id="path335" d="M194.76,503.67s-.7,6.79-13.58,9.37L177,500.31S188.85,499.89,194.76,503.67Z" transform="translate(-6.09 -131.05)" fill="#6887ff"/><path id="path337" d="M194.76,503.67s-.7,6.79-13.58,9.37L177,500.31S188.85,499.89,194.76,503.67Z" transform="translate(-6.09 -131.05)" fill="#6887ff" opacity="0.43" style="isolation:isolate"/><path id="path339" d="M210,407.71s-4.93,47.06,0,55.23,14,4.63,14-14.82a232.81,232.81,0,0,0-3.71-38.81Z" transform="translate(-6.09 -131.05)" fill="#fb9d89"/><path id="path341" d="M210,407.71s-3.7-4.28-6-5.34-5.77-1.5-6.84-7.82-2.47-12.86-.71-13.67,4.53,1.34,5.24,3.71l.71,2.4s-.35-3.56,1.15-4.09,15-1.24,17.67-.18,2.23,13.12,1.52,16.55-2.47,10-2.47,10Z" transform="translate(-6.09 -131.05)" fill="#fb9d89"/><path id="path343" d="M221.43,388.7s.81,4.71-1.69,5.77-16.12.5-17-1c-.71-1.23-.45-6.48-.45-6.48a6.22,6.22,0,0,1,1.15-4.09" transform="translate(-6.09 -131.05)" fill="none" stroke="#42353b" stroke-linecap="round" stroke-linejoin="round" stroke-width="0.35"/><path id="path345" d="M207.54,382.48a13.48,13.48,0,0,0-1.17,4.88,55.67,55.67,0,0,0-.22,7.19" transform="translate(-6.09 -131.05)" fill="none" stroke="#42353b" stroke-linecap="round" stroke-linejoin="round" stroke-width="0.35"/><path id="path347" d="M213.38,382a38.17,38.17,0,0,0-1.23,12.81c0,.08,0,.18.11.18s0-.15,0-.1" transform="translate(-6.09 -131.05)" fill="none" stroke="#42353b" stroke-linecap="round" stroke-linejoin="round" stroke-width="0.35"/><path id="path349" d="M217.83,382.17a35.72,35.72,0,0,0-.82,12.74" transform="translate(-6.09 -131.05)" fill="none" stroke="#42353b" stroke-linecap="round" stroke-linejoin="round" stroke-width="0.35"/><path id="path351" d="M209.27,394.91a8.35,8.35,0,0,1,3.45,2.86" transform="translate(-6.09 -131.05)" fill="none" stroke="#42353b" stroke-linecap="round" stroke-linejoin="round" stroke-width="0.35"/><polygon id="polygon353" points="33.29 339.24 45.47 341.02 56.08 317.65 40.71 311.43 33.29 339.24" fill="#fb9d89"/><path id="path355" d="M39.38,470.29s-11.05,19.93-9.88,23.46,18,9.32,23.54,4.39-1.47-26.06-1.47-26.06Z" transform="translate(-6.09 -131.05)" fill="#fb9d89"/><path id="path357" d="M30.33,497.81a12.84,12.84,0,0,0,1.6.49,16.9,16.9,0,0,1,2.26,1.48c1.79,1,4,.18,6,.24a37.13,37.13,0,0,1,3.91.67,12.19,12.19,0,0,0,7.23-1.12,5.44,5.44,0,0,0,2.11-1.63,7.22,7.22,0,0,0,1-3.11c.43-2.61.74-5.52-.75-7.71a7.92,7.92,0,0,0-2.86-2.47,15,15,0,0,0-12.35-.81,15.8,15.8,0,0,0-7.45,6.42c-1.21,1.76-3.69,6-.77,7.55Z" transform="translate(-6.09 -131.05)" fill="#fb9d89"/><path id="path359" d="M51.55,472.07S57,479.2,58.35,483s4.47,8.65,3.39,10.31-5.35-3.17-6.83-6.26l-3.6-7.41.33-8.08" transform="translate(-6.09 -131.05)" fill="#fb9d89"/><path id="path361" d="M126.81,387.59s6.42,60,7.11,80.08S136,498.9,136,498.9l37.89,1.89s-11.55-26.65-16.55-56.06a486.36,486.36,0,0,1-6.1-48.85Z" transform="translate(-6.09 -131.05)" fill="#f77"/><path id="path363" d="M161.22,350.62a2.76,2.76,0,0,1-.22,1.6,13.3,13.3,0,0,1-1.35-3.34c-.82-2.69-1.53-5.39-2.13-8.12-.21-.93-.31-2.16.54-2.63C160.65,336.7,161.15,349.14,161.22,350.62Z" transform="translate(-6.09 -131.05)" fill="#42353b"/><path id="path365" d="M114.3,352.84c-1.09-1.68-2.47-3.42-2.34-5.42a10.34,10.34,0,0,0,.18-1.57,6.46,6.46,0,0,0-.94-2.47c-1.24-2.6-1.53-6.1.54-8.12.59-.57,1.31-1,1.85-1.6,1.15-1.31,1.24-3.33,2.55-4.52a4.54,4.54,0,0,1,5.27-.13c2.47,1.47,3.84,4.28,4.94,6.95s2.27,5.73,1.23,8.48a10.06,10.06,0,0,1-1.5,2.6,46.26,46.26,0,0,1-5.86,6.57c-.8.75-2,2.32-3.26,2.23s-2.08-2-2.66-3Z" transform="translate(-6.09 -131.05)" fill="#42353b"/><path id="path367" d="M161.32,356.09a37.63,37.63,0,0,0-.26-4,10.36,10.36,0,0,0-.2-1.63l-.63-3.55a.67.67,0,0,0,0-.2,3.28,3.28,0,0,0-.17-.78,7.79,7.79,0,0,0-.22-.83,24.55,24.55,0,0,0-4.57-9.46A19.63,19.63,0,0,0,142,328.49a17.73,17.73,0,0,0-4.18.17,9.3,9.3,0,0,0-.92.16l-.46.1-.92.26a18.9,18.9,0,0,0-10.66,8.19c-1.63,2.54-2.24,6-2.59,9a32.21,32.21,0,0,0,0,8.09,1.08,1.08,0,0,0,.07.44,8.75,8.75,0,0,0,.2,1.23,58.35,58.35,0,0,0,3.62,11.47,32.2,32.2,0,0,1,2.46,10.72,22.63,22.63,0,0,1-.45,5.63,33.54,33.54,0,0,1-1.24,3.14c-.85,2.79,2.89,5.7,4.81,7.26a22.28,22.28,0,0,0,9.22,4.47,19,19,0,0,0,5.21.42c3-.17,5.92-.88,5.14-4.57-.33-1.62-1.24-3.07-1.42-4.72s-.27-3.26-.38-4.94c0-.7-.11-1.42-.13-2.15,0-.5-.21-1.91.1-2.34a.14.14,0,0,0,0-.09v-.06h0a14.57,14.57,0,0,0,4.2-.56c3.05-1.23,4.69-4.07,5.67-7.13a34.22,34.22,0,0,0,1.17-5.29,58,58,0,0,0,.84-11.32Z" transform="translate(-6.09 -131.05)" fill="#fb9d89"/><path id="path369" d="M137,376s6,8.74,12.52,9.59a21.08,21.08,0,0,1-.1-5,.11.11,0,0,0,0-.08.09.09,0,0,1,0-.07h0S139.91,378.37,137,376Z" transform="translate(-6.09 -131.05)" fill="#f77"/><path id="path371" d="M125.24,358.57c-.67-.69-3.36-6.17-7.47-4.85s-3.53,11.59,1.92,13.69,7.54-.6,7.54-.6Z" transform="translate(-6.09 -131.05)" fill="#fb9d89"/><path id="path373" d="M122.37,357.83c-.48-1.06-1.17-2.26-2.33-2.37a2.56,2.56,0,0,0-2.14,1.14,6.61,6.61,0,0,0-.28,7,5,5,0,0,0,2.11,2.27,2.69,2.69,0,0,0,2.94-.27,3.37,3.37,0,0,0,.93-1.87" transform="translate(-6.09 -131.05)" fill="none" stroke="#42353b" stroke-linecap="round" stroke-linejoin="round" stroke-width="0.35"/><path id="path375" d="M118.69,355.85s3.23,2.47,4.45,9.12" transform="translate(-6.09 -131.05)" fill="none" stroke="#42353b" stroke-linecap="round" stroke-linejoin="round" stroke-width="0.35"/><path id="path377" d="M152.37,365.46a.15.15,0,0,1-.15-.07.15.15,0,0,1,0-.2,5.16,5.16,0,0,0,1.61-1.44,1.52,1.52,0,0,0,.27-.52c.07-.44-.25-.82-.57-1.24l-.21-.26c-1.1-1.43-.93-3.48-.66-5.11a48.12,48.12,0,0,1,1.14-5,.14.14,0,0,1,.16-.1h0a.11.11,0,0,1,.11.13.06.06,0,0,1,0,0,45.87,45.87,0,0,0-1.12,4.94c-.29,1.66-.42,3.54.59,4.94l.21.26a1.85,1.85,0,0,1,.63,1.43,1.72,1.72,0,0,1-.32.65,5.61,5.61,0,0,1-1.7,1.52Z" transform="translate(-6.09 -131.05)" fill="#42353b"/><path id="path379" d="M157.63,354.11a1.14,1.14,0,0,1-1,1.24,1.17,1.17,0,0,1-1.23-1.11,1.15,1.15,0,0,1,.94-1.21,1.14,1.14,0,0,1,1.26,1A.2.2,0,0,1,157.63,354.11Z" transform="translate(-6.09 -131.05)" fill="#42353b"/><path id="path381" d="M143.75,354.84a1.36,1.36,0,0,1-.87,1.68,1.3,1.3,0,0,1-1.62-.88v0a1.34,1.34,0,0,1,.86-1.68,1.32,1.32,0,0,1,1.64.89Z" transform="translate(-6.09 -131.05)" fill="#42353b"/><path id="path383" d="M134.33,348.25c-.37.57-.63,1.39-.14,1.85s1.1.21,1.66,0a31.59,31.59,0,0,1,6.59-1.48,5.09,5.09,0,0,0,1.49-.37,1.48,1.48,0,0,0,.91-1.14c.16-1.86-3.36-2.95-4.82-2.68a8.77,8.77,0,0,0-5.69,3.82Z" transform="translate(-6.09 -131.05)" fill="#42353b"/><path id="path385" d="M160,345.37h0a2.3,2.3,0,0,0-1.76-.9,3.62,3.62,0,0,0-2.12.75,3.93,3.93,0,0,0-1,.77,1.3,1.3,0,0,0-.33,1.16,1.32,1.32,0,0,0,.71.84,4.83,4.83,0,0,0,1.11.31l1.6.28,2.19.41h.2Z" transform="translate(-6.09 -131.05)" fill="#42353b"/><path id="path387" d="M147.73,370a8.43,8.43,0,0,0,4.48.79" transform="translate(-6.09 -131.05)" fill="none" stroke="#42353b" stroke-linecap="round" stroke-linejoin="round" stroke-width="0.3"/><path id="path389" d="M143.81,365.46s5.36,4.83,11.56,2.76" transform="translate(-6.09 -131.05)" fill="none" stroke="#42353b" stroke-linecap="round" stroke-linejoin="round" stroke-width="0.35"/><path id="path391" d="M143.81,364.73a8.88,8.88,0,1,1-8.88-8.88h0a8.87,8.87,0,0,1,8.88,8.86Z" transform="translate(-6.09 -131.05)" fill="url(#linear-gradient-3)"/><path id="path393" d="M160.58,367.4a35.43,35.43,0,0,1-1.17,5.29,8.87,8.87,0,0,1,1.91-16.6A58.71,58.71,0,0,1,160.58,367.4Z" transform="translate(-6.09 -131.05)" fill="url(#linear-gradient-4)"/><path id="path395" d="M124,352.56a42.71,42.71,0,0,0,2.29-4.53A16.24,16.24,0,0,0,128,339.9c-.32-2.79-2.08-5.53-4.55-5.95-2.69-.46-5.26,2-6.08,4.94a16.55,16.55,0,0,0,.6,9.06,24.24,24.24,0,0,0,2.39,5.85c1.48,2.49,2.63.62,3.71-1.24Z" transform="translate(-6.09 -131.05)" fill="#42353b"/><path id="path397" d="M125.94,319.85c1.9-.5,4-.23,5.74-1.15a11.12,11.12,0,0,0,2.38-2.05,12.19,12.19,0,0,1,4.65-3.1,6.83,6.83,0,0,1,5.51.31c1,.55,1.79,1.42,2.79,2,2.73,1.51,6.52.51,9,2.4,2,1.53,2.47,4.53,4.64,5.75,1.23.7,3,.73,3.9,1.82,1.09,1.23.43,3.19.52,4.85s.78,2.9.67,4.37a6,6,0,0,1-3.79,4.53,4,4,0,0,1-1.47.41,21,21,0,0,1-2.6-.53c-2.15-.21-4.05,1.84-6.17,1.53-1.45-.2-2.47-1.43-3.71-2.2a6.37,6.37,0,0,0-4.31-.84c-1,.16-1.92.56-2.92.66a9.21,9.21,0,0,1-4.81-1.24,2.53,2.53,0,0,0-.86-.31,2.7,2.7,0,0,0-1.36.51,8.14,8.14,0,0,1-8-.09c-5.67-3.42-7.57-15.58.27-17.59Z" transform="translate(-6.09 -131.05)" fill="#42353b"/><path id="path399" d="M124.93,359.16a1.43,1.43,0,0,0,.85.88c.69.16,1.24-.64,1.4-1.32a13.26,13.26,0,0,0-1.57-9.71c-.48-.89-1.24-1.86-2.26-1.66s-1.35,1.38-1.53,2.37a8.63,8.63,0,0,0-.2,2.21,8.36,8.36,0,0,0,1.48,3.32C123.83,356.5,124.27,357.88,124.93,359.16Z" transform="translate(-6.09 -131.05)" fill="#42353b"/><path id="path401" d="M143.29,515.29a58.63,58.63,0,0,0-27.87-.25C99.8,518.6,99.8,536.11,99.08,534.45S97,520.72,98.15,510c.69-6.24.56-21.68.35-33.34-.14-8.26-.35-14.68-.35-14.68s-2.35-14-3.85-29.3C92.71,416.77,92,399.44,95.77,395c7.34-8.76,31.79-9.43,31.79-9.43Z" transform="translate(-6.09 -131.05)" fill="#6887ff"/><path id="path403" d="M194.75,503.65c-10.66-4.71-22.59-3.06-22.59-3.06s-6-17.87-10.76-37c-.75-2.95-1.44-5.94-2.09-8.89-4.88-22.23-9.76-67.08-9.76-67.08S157.17,392,163.7,396a75.5,75.5,0,0,1,8.46,5.82c3.92,3.55,6.26,45.22,7,61.74s15.17,39.36,15.62,40.08Z" transform="translate(-6.09 -131.05)" fill="#6887ff"/><path id="path405" d="M98.39,392.63S54.8,419.36,45.56,429.55c0,0,19.66,10.37,22.74,16.05,0,0,36.71-18.91,37.42-19.15S98.39,392.63,98.39,392.63Z" transform="translate(-6.09 -131.05)" fill="#6887ff"/><path id="path407" d="M213.94,468.14A87.21,87.21,0,0,1,181.57,453c-1-.74-2-1.54-3.07-2.37h0v-.37a.14.14,0,0,1,0-.09l-.72-5.46-5.54-42.83,35.81,32.9Z" transform="translate(-6.09 -131.05)" fill="#6887ff"/><path id="path409" d="M206.41,432.63c-.94.27-1.24,1.47-1.24,2.47a92.51,92.51,0,0,0,1.09,20.15c.59,3.63,1.47,7.41,3.64,10.3a6.57,6.57,0,0,0,4.22,2.87c2.79.34,5.13-2.05,6.68-4.38,2.07-3.11,3.71-6.82,3-10.48a18,18,0,0,0-3.1-6.42q-5.05-7.62-10.24-15.16a1.86,1.86,0,0,0-1-.86c-1.45-.4-1.63,1.69-1.24,2.56a1.83,1.83,0,0,0-1.87-1.05Z" transform="translate(-6.09 -131.05)" fill="#6887ff"/><path id="path411" d="M206.41,432.63c-.94.27-1.24,1.47-1.24,2.47a92.51,92.51,0,0,0,1.09,20.15c.59,3.63,1.47,7.41,3.64,10.3a6.57,6.57,0,0,0,4.22,2.87c2.79.34,5.13-2.05,6.68-4.38,2.07-3.11,3.71-6.82,3-10.48a18,18,0,0,0-3.1-6.42q-5.05-7.62-10.24-15.16a1.86,1.86,0,0,0-1-.86c-1.45-.4-1.63,1.69-1.24,2.56a1.83,1.83,0,0,0-1.87-1.05Z" transform="translate(-6.09 -131.05)" fill="#6887ff" opacity="0.36" style="isolation:isolate"/><path id="path413" d="M182.39,447.54a17.36,17.36,0,0,1-.82,5.45c-1-.74-2-1.54-3.07-2.37a.91.91,0,0,0-.06-.4.11.11,0,0,1,0-.08c-.23-1.16-.41-2.14-.45-2.47-.1-1-.18-1.95-.27-2.93-.2-2.47-.35-4.94-.47-7.31-.14-2.87-1.09-7.34-.25-10.08.95-3.12,3.49,2,3.87,3.55a39.16,39.16,0,0,1,.57,6.31c.19,3.42.94,6.85.95,10.33Z" transform="translate(-6.09 -131.05)" fill="#6887ff" opacity="0.36" style="isolation:isolate"/><path id="path415" d="M176.41,423.69s1.73,20.56,2.06,26.89" transform="translate(-6.09 -131.05)" fill="none" stroke="#42353b" stroke-linecap="round" stroke-linejoin="round" stroke-width="0.35"/><line id="line417" x1="173.87" y1="301.31" x2="172.39" y2="317.45" stroke-width="0.35" stroke="#42353b" stroke-linecap="round" stroke-linejoin="round" fill="none"/><path id="path419" d="M46.29,429.75a4,4,0,0,0-2.39-.11,1.58,1.58,0,0,0-1,2c.23.49.79.8.85,1.33a1.67,1.67,0,0,1-.61,1.23,13.83,13.83,0,0,0-2.87,5.3,1.77,1.77,0,0,0,1,2.43l7.54,4.52L63.09,455c.7.43,1.7.82,2.25.19,1-1.24,0-2.32,1.46-3.45s2-1.07,2.67-3.46c1-3.59-1.1-5.13-3.6-7.48a47.25,47.25,0,0,0-19.58-11.05Z" transform="translate(-6.09 -131.05)" fill="#6887ff"/><path id="path421" d="M46.29,429.75a4,4,0,0,0-2.39-.11,1.58,1.58,0,0,0-1,2c.23.49.79.8.85,1.33a1.67,1.67,0,0,1-.61,1.23,13.83,13.83,0,0,0-2.87,5.3,1.77,1.77,0,0,0,1,2.43l7.54,4.52L63.09,455c.7.43,1.7.82,2.25.19,1-1.24,0-2.32,1.46-3.45s2-1.07,2.67-3.46c1-3.59-1.1-5.13-3.6-7.48a47.25,47.25,0,0,0-19.58-11.05Z" transform="translate(-6.09 -131.05)" fill="#6887ff" opacity="0.36" style="isolation:isolate"/><path id="path423" d="M109.8,388l14.57,15.87L116,421.76l21.32,44.61-9.8-80.8A40,40,0,0,0,109.8,388Z" transform="translate(-6.09 -131.05)" fill="#6887ff" opacity="0.36" style="isolation:isolate"/><path id="path425" d="M161.35,463.23v.33c-.75-2.95-1.44-5.94-2.09-8.89-4.88-22.23-9.76-67.08-9.76-67.08s7.62,4.37,14.15,8.43l-4.51,10.09,9.58,19.76S160.15,454.45,161.35,463.23Z" transform="translate(-6.09 -131.05)" fill="#6887ff" opacity="0.36" style="isolation:isolate"/><circle id="circle427" cx="129.38" cy="338.91" r="1.52" fill="#6887ff" opacity="0.36" style="isolation:isolate"/><circle id="circle429" cx="129.75" cy="346.9" r="1.52" fill="#6887ff" opacity="0.36" style="isolation:isolate"/><path id="path431" d="M138,485.93a1.53,1.53,0,0,1-.8,2h0a1.53,1.53,0,0,1-1.24-2.8h0a1.52,1.52,0,0,1,2,.75Z" transform="translate(-6.09 -131.05)" fill="#6887ff" opacity="0.36" style="isolation:isolate"/><path id="path433" d="M138.76,496a1.53,1.53,0,1,1-2-.78A1.54,1.54,0,0,1,138.76,496Z" transform="translate(-6.09 -131.05)" fill="#6887ff" opacity="0.36" style="isolation:isolate"/><path id="path435" d="M46.75,431.05s19.92-16.12,36-26.37S109.8,388,109.8,388" transform="translate(-6.09 -131.05)" fill="none" stroke="#42353b" stroke-linecap="round" stroke-linejoin="round" stroke-width="0.35"/><line id="line437" x1="103.72" y1="292.64" x2="88.02" y2="301.31" stroke-width="0.35" stroke="#42353b" stroke-linecap="round" stroke-linejoin="round" fill="none"/><path id="path439" d="M99.31,429.49a270.35,270.35,0,0,1,3.87,45c0,24.32-1.48,47-.92,50.86" transform="translate(-6.09 -131.05)" fill="none" stroke="#42353b" stroke-linecap="round" stroke-linejoin="round" stroke-width="0.35"/><path id="path441" d="M103.75,458.15c-.16,6-.44,12.29-3.86,17.15a4.79,4.79,0,0,1-1.39,1.41c-.14-8.26-.35-14.68-.35-14.68s-2.35-14-3.84-29.31c.24-.18.5-.35.76-.51l6.08-3.94c3,9.54,2.86,19.8,2.6,29.88Z" transform="translate(-6.09 -131.05)" fill="#6887ff" opacity="0.36" style="isolation:isolate"/></g></g></g></svg>