<svg id="svg146" xmlns="http://www.w3.org/2000/svg" xmlns:xlink="http://www.w3.org/1999/xlink" viewBox="0 0 2822.53 2711.45"><defs><linearGradient id="linear-gradient" x1="-1294.58" y1="2807.12" x2="-803.01" y2="3324.48" gradientTransform="matrix(0.69, -0.73, -0.73, -0.69, 3058.39, 1953.64)" gradientUnits="userSpaceOnUse"><stop offset="0" stop-color="#aa80f9"/><stop offset="1" stop-color="#6165d7"/></linearGradient><linearGradient id="linear-gradient-2" x1="1168.76" y1="1738.32" x2="1762.62" y2="1738.32" gradientTransform="matrix(0.72, 0.7, 0.7, -0.72, -800.15, 678)" gradientUnits="userSpaceOnUse"><stop offset="0" stop-color="#ffc444"/><stop offset="1" stop-color="#f36f56"/></linearGradient><linearGradient id="linear-gradient-3" x1="554.13" y1="910.99" x2="561.14" y2="819.84" gradientTransform="matrix(0.86, 0.51, 0.51, -0.86, 261.44, 1800.38)" gradientUnits="userSpaceOnUse"><stop offset="0" stop-color="#311944"/><stop offset="1" stop-color="#a03976"/></linearGradient><linearGradient id="linear-gradient-4" x1="224.24" y1="1474.77" x2="533.87" y2="1229.79" gradientTransform="matrix(0.86, 0.51, 0.51, -0.86, 261.44, 1800.38)" gradientUnits="userSpaceOnUse"><stop offset="0" stop-color="#444b8c"/><stop offset="1" stop-color="#3e4177"/></linearGradient><linearGradient id="linear-gradient-5" x1="1677.82" y1="2069.54" x2="1987.46" y2="1824.55" gradientTransform="translate(4132.17 2198.82) rotate(180)" xlink:href="#linear-gradient-4"/><linearGradient id="linear-gradient-6" x1="-1817.8" y1="1296.28" x2="-1203.77" y2="1296.28" gradientTransform="matrix(0.69, -0.73, -0.73, -0.69, 3058.39, 1953.64)" gradientUnits="userSpaceOnUse"><stop offset="0" stop-color="#444b8c"/><stop offset="1" stop-color="#26264f"/></linearGradient><linearGradient id="linear-gradient-7" x1="-434.68" y1="885.18" x2="179.36" y2="885.18" gradientTransform="translate(4132.17 2198.82) rotate(180)" xlink:href="#linear-gradient-6"/><linearGradient id="linear-gradient-8" x1="-1817.8" y1="1339.29" x2="-1203.78" y2="1339.29" xlink:href="#linear-gradient"/><linearGradient id="linear-gradient-9" x1="2515.47" y1="367.37" x2="3591.92" y2="916.58" gradientTransform="translate(4619.83 1055.98) rotate(165.58)" xlink:href="#linear-gradient"/><linearGradient id="linear-gradient-10" x1="-1261.47" y1="1735.01" x2="50.57" y2="3115.89" gradientTransform="matrix(0.69, -0.73, -0.73, -0.69, 3058.39, 1953.64)" xlink:href="#linear-gradient-2"/><linearGradient id="linear-gradient-11" x1="-1367.55" y1="1835.79" x2="-55.51" y2="3216.67" gradientTransform="matrix(0.69, -0.73, -0.73, -0.69, 3058.39, 1953.64)" xlink:href="#linear-gradient-2"/><linearGradient id="linear-gradient-12" x1="-1276.27" y1="1513.4" x2="-193.21" y2="1513.4" gradientTransform="translate(4132.17 2198.82) rotate(180)" xlink:href="#linear-gradient"/><linearGradient id="linear-gradient-13" x1="-1340.57" y1="2280.3" x2="-467.33" y2="2280.3" gradientTransform="matrix(1, 0, 0, -1, 1678.28, 3315.17)" gradientUnits="userSpaceOnUse"><stop offset="0" stop-color="#ebeff2"/><stop offset="1" stop-color="#fff"/></linearGradient><linearGradient id="linear-gradient-14" x1="-1340.4" y1="2266.7" x2="-467.14" y2="2266.7" gradientTransform="matrix(0.69, -0.73, -0.73, -0.69, 3058.39, 1953.64)" xlink:href="#linear-gradient-13"/><linearGradient id="linear-gradient-15" x1="-768.26" y1="2559.37" x2="-982.89" y2="2117.96" xlink:href="#linear-gradient-13"/><linearGradient id="linear-gradient-16" x1="-1284.31" y1="1725.25" x2="-634.13" y2="2674.07" gradientTransform="matrix(1, 0, 0, -1, 1678.28, 3315.17)" xlink:href="#linear-gradient-6"/><linearGradient id="linear-gradient-17" x1="-927.54" y1="899.75" x2="-900.54" y2="1252.08" gradientTransform="matrix(1, 0, 0, -1, 2442.59, 2985.38)" xlink:href="#linear-gradient-2"/><linearGradient id="linear-gradient-18" x1="-1033.97" y1="346.6" x2="-435.42" y2="346.6" gradientTransform="translate(4132.17 2198.82) rotate(180)" xlink:href="#linear-gradient"/><linearGradient id="linear-gradient-19" x1="-864.19" y1="1162.81" x2="-1011.33" y2="720.02" gradientTransform="matrix(1, 0, 0, -1, 2575.76, 2929.31)" xlink:href="#linear-gradient"/><linearGradient id="linear-gradient-20" x1="-873.71" y1="1134.15" x2="-985.54" y2="797.62" gradientTransform="matrix(1, 0, 0, -1, 2575.76, 2929.31)" xlink:href="#linear-gradient-6"/><linearGradient id="linear-gradient-21" x1="-1322.39" y1="1747.04" x2="-672.21" y2="2695.83" xlink:href="#linear-gradient-6"/><linearGradient id="linear-gradient-22" x1="2546.5" y1="-116.67" x2="1774.2" y2="-1318.91" gradientTransform="translate(4492.94 1245.77) rotate(171.11)" xlink:href="#linear-gradient-2"/><linearGradient id="linear-gradient-23" x1="3982.86" y1="-376.51" x2="3210.56" y2="-1578.76" gradientTransform="translate(5047.86 146.37) rotate(154.79)" xlink:href="#linear-gradient-2"/><linearGradient id="linear-gradient-24" x1="1083.57" y1="1698.44" x2="1171.67" y2="1627.76" gradientTransform="matrix(0.72, 0.7, 0.7, -0.72, -800.15, 678)" xlink:href="#linear-gradient-3"/><linearGradient id="linear-gradient-25" x1="2866.49" y1="1141.08" x2="2835.51" y2="997.77" gradientTransform="translate(4132.17 2198.82) rotate(180)" xlink:href="#linear-gradient-3"/><linearGradient id="linear-gradient-26" x1="1168.76" y1="1674.55" x2="1762.49" y2="1674.55" xlink:href="#linear-gradient-2"/><linearGradient id="linear-gradient-27" x1="1734.72" y1="955.35" x2="2260.14" y2="955.35" gradientTransform="translate(4132.17 2198.82) rotate(180)" xlink:href="#linear-gradient-4"/><linearGradient id="linear-gradient-28" x1="527.22" y1="1674.46" x2="1390.34" y2="1674.46" gradientTransform="matrix(0.86, 0.51, 0.51, -0.86, 261.44, 1800.38)" xlink:href="#linear-gradient-2"/><linearGradient id="linear-gradient-29" x1="2503.98" y1="2052.28" x2="2483.65" y2="1998.05" gradientTransform="translate(4132.17 2198.82) rotate(180)" xlink:href="#linear-gradient-3"/><linearGradient id="linear-gradient-30" x1="527.22" y1="1515.74" x2="1390.34" y2="1515.74" gradientTransform="matrix(0.86, 0.51, 0.51, -0.86, 261.44, 1800.38)" xlink:href="#linear-gradient-2"/><linearGradient id="linear-gradient-31" x1="2489.55" y1="1886.69" x2="2420.8" y2="1801.48" gradientTransform="translate(4132.17 2198.82) rotate(180)" xlink:href="#linear-gradient-3"/><linearGradient id="linear-gradient-32" x1="5222.69" y1="2475.35" x2="4273.8" y2="1424.27" gradientTransform="matrix(1, 0, 0, -1, -2180.86, 2198.82)" gradientUnits="userSpaceOnUse"><stop offset="0" stop-color="#ff9085"/><stop offset="1" stop-color="#fb6fbb"/></linearGradient><linearGradient id="linear-gradient-33" x1="1796.43" y1="1466.37" x2="1805.51" y2="1514.46" gradientTransform="translate(4132.17 2198.82) rotate(180)" xlink:href="#linear-gradient-3"/></defs><g id="Illustration"><path id="path89" d="M20.17,505.49l-.48,2.94-.81,5c-.27,1.66-.54,3.38-.81,5.09s-.5,3.24-.75,4.88c-.28,1.81-.55,3.64-.82,5.47-.24,1.57-.47,3.14-.7,4.73q-.44,2.91-.84,5.85c-.22,1.52-.44,3-.65,4.59-.28,2.06-.57,4.13-.85,6.21-.2,1.47-.39,3-.59,4.44q-.43,3.27-.85,6.58l-.54,4.28c-.29,2.3-.57,4.6-.84,6.92-.17,1.4-.34,2.8-.5,4.21q-.42,3.57-.83,7.19c-.15,1.36-.3,2.72-.45,4.1q-.4,3.74-.81,7.53c-.13,1.31-.27,2.63-.41,4-.26,2.59-.52,5.21-.77,7.83-.13,1.28-.25,2.57-.37,3.86-.26,2.7-.5,5.41-.74,8.14l-.33,3.73c-.24,2.8-.48,5.61-.7,8.43-.1,1.21-.19,2.43-.29,3.65q-.33,4.32-.65,8.69c-.09,1.18-.17,2.37-.25,3.56q-.33,4.44-.6,8.93l-.21,3.49c-.2,3.05-.38,6.12-.54,9.19L2,672.37q-.24,4.71-.47,9.46c-.05,1.09-.09,2.18-.14,3.27q-.21,4.83-.39,9.71L.89,698c-.11,3.31-.22,6.63-.31,10,0,1,0,2-.08,3-.08,3.41-.16,6.82-.23,10.25v2.92q-.09,5.22-.14,10.47v16.3c0,3.61,0,7.24.08,10.88v2.65Q.29,770,.4,775.57l.06,2.57q.14,5.64.31,11.32c0,.8.06,1.62.08,2.43.13,3.84.28,7.68.44,11.54,0,.78.07,1.56.11,2.34q.26,5.87.57,11.76l.12,2.19q.33,6,.72,12c0,.69.09,1.39.14,2.08q.39,6.08.86,12.19c0,.64.11,1.29.16,1.94q.48,6.18,1,12.39c.06.62.12,1.24.17,1.86q.57,6.27,1.19,12.57c0,.55.11,1.11.17,1.67q.63,6.41,1.37,12.82c0,.5.12,1,.17,1.51.5,4.34,1,8.68,1.56,13,.05.45.11.9.17,1.36q.84,6.61,1.75,13.26c.05.38.11.75.16,1.13q.93,6.76,2,13.54a5.61,5.61,0,0,0,.14.9c.7,4.6,1.42,9.2,2.19,13.81a3.79,3.79,0,0,0,.11.66c.77,4.69,1.58,9.4,2.42,14.1l.06.34a1015.48,1015.48,0,0,0,33,132.88c24.5-90,86.41-199.22,161.52-301.82C145.61,734.12,75.77,644.52,20.17,505.49Z" transform="translate(0.01 -0.03)" opacity="0.3" fill="url(#linear-gradient)" style="isolation:isolate"/><path id="path119" d="M1209.1,287.62l-27,28c2,15.85,7.2,40.67,22.49,65.9,35.8,59.1,87.87,55.56,167.27,116,35.59,27.1,21.74,25.23,99.88,98,64.93,60.46,97.92,90.76,123.62,93.61,82,9.12,156.26-124,169.12-147.61a1816.33,1816.33,0,0,0-201-89.71c-112.2-42-205.13-63.88-321.49-141.25-14-9.32-25.36-17.42-32.89-22.94Z" transform="translate(0.01 -0.03)" fill="url(#linear-gradient-2)"/><path id="path139" d="M2310.85,830.92a7.93,7.93,0,0,1-7.94-7.94h0V8a7.94,7.94,0,1,1,15.88,0V823a8,8,0,0,1-7.93,7.95Z" transform="translate(0.01 -0.03)" fill="#a2a7ae"/><path id="path65" d="M1190,1352.52s21.44,3.19,23.62,13.6,4.43,21.41-4.18,49.81-7.64,40.53-18,42.37S1160.81,1384.51,1190,1352.52Z" transform="translate(0.01 -0.03)" fill="#26264f"/><path id="path67" d="M1191.55,1322.48c.19,2.07,7.85,25.38,12.26,38.65a12.8,12.8,0,0,1-4.9,14.57h0a15.66,15.66,0,0,1-21.32-3.34c-8.57-11.13-21-27.81-27.31-39.23Z" transform="translate(0.01 -0.03)" fill="url(#linear-gradient-3)"/><path id="path69" d="M1674.64,1024.31c18.27-36.35-82.73-120.5-96.17-131.69-26.45-22-281.53-230-430-128.42-125,85.47-82.23,327.16-73.85,374.5,17.57,99.32,57.82,174.48,87.77,220.76l48.88-27.2c10.54-52.74,17-97.15,21-129.75,5.94-48.21,11.29-91.67,12.6-149.1,2.06-90.94-8.48-108.94,6.07-120.17,32.19-24.82,99,51.35,238.77,89.06,58.53,15.81,168.24,35.2,184.93,2Z" transform="translate(0.01 -0.03)" fill="url(#linear-gradient-4)"/><path id="path71" d="M1578.47,892.62a935.27,935.27,0,0,0-76.42-56.57c-12.23,17-24.89,25-35.59,28.63-49.18,16.83-83.87-41.92-170.3-43.62-22.11-.44-82.73-1.64-113.3,35.91-36.54,44.86,10.22,95.43-20.62,195.84-16,52.09-32.52,51.34-34.67,90.14-3.4,61.25,36.59,84.94,34.17,138.6-.65,14.18-4.57,31.62-15.47,51.43,5.54,9.55,11,18.58,16.1,26.48l48.88-27.2c10.54-52.74,17-97.15,21-129.75,5.94-48.21,11.29-91.67,12.6-149.1,2.06-90.94-8.48-108.94,6.07-120.17,32.19-24.82,99,51.35,238.77,89.06,58.58,15.81,168.29,35.2,185,2,18.22-36.34-82.78-120.48-96.22-131.68Z" transform="translate(0.01 -0.03)" opacity="0.3" fill="url(#linear-gradient-5)" style="isolation:isolate"/><path id="path73" d="M980.11,1763.24s-225.56,340.54,73,793.24c27.81,42.17,91,37.91,113.16-7.49l141-289.24a182.91,182.91,0,0,0,5.45-148l-98.24-246Z" transform="translate(0.01 -0.03)" fill="url(#linear-gradient-6)"/><path id="path75" d="M1512.55,1201.76s328.08-243.31,796,30.76c43.59,25.53,42.69,88.89-1.48,113.41l-281.34,156.16a182.93,182.93,0,0,1-147.54,13.3l-250.84-85Z" transform="translate(0.01 -0.03)" fill="url(#linear-gradient-7)"/><path id="path77" d="M948.76,1733.52s-225.56,340.54,73,793.24c27.81,42.17,91,37.91,113.17-7.5l141-289.23a183,183,0,0,0,5.46-148l-98.24-246Z" transform="translate(0.01 -0.03)" fill="url(#linear-gradient-8)"/><path id="path79" d="M1481.17,1172s328.12-243.32,796,30.78c43.58,25.53,42.68,88.89-1.48,113.4l-281.35,156.17a183,183,0,0,1-147.54,13.3l-250.83-85Z" transform="translate(0.01 -0.03)" fill="url(#linear-gradient-9)"/><path id="path81" d="M1091.7,451.73C660,124.82,54.87,351.66,54.65,352.47c-.8.27-195.21,616.63,154.15,1030.32,316.89,375.25,933.28,592.62,1051.31,631.7,12.69,4.2,33.09,9.53,38.53-2.69,105.77-237.6,269.65-401.63,479.71-505.61,11.63-5.75,4.91-25.45.19-37.53-44.63-114.23-294.6-719.84-686.84-1016.93Z" transform="translate(0.01 -0.03)" fill="url(#linear-gradient-10)"/><g id="g85" opacity="0.3"><path id="path83" d="M931,1062.47C689.72,881.25,504.15,996.25,273.94,841.2c-84.06-56.61-181.08-154-253.8-335.73C-14.4,714.83-32.45,1097.12,208.8,1382.79c316.89,375.25,933.28,592.62,1051.31,631.7,12.69,4.2,33.09,9.53,38.53-2.69,53.43-120,121.72-221.26,203.27-305.48-86.11-35.79-150.64-80.35-200-124.7-198.93-178.88-151-354-370.88-519.15Z" transform="translate(0.01 -0.03)" fill="url(#linear-gradient-11)"/></g><path id="path87" d="M348.5,631.13C477.34,495.26,641.34,365.47,796.7,309.86c-320.58-85-644,9.32-723.53,36A37.36,37.36,0,0,0,49,371.32c-22.42,80.89-99.45,408.81,2.44,724.42C89.81,954.94,219.67,767,348.5,631.13Z" transform="translate(0.01 -0.03)" fill="url(#linear-gradient-12)"/><ellipse id="ellipse91" cx="774.32" cy="1034.86" rx="436.62" ry="393.21" transform="translate(-509.4 884.6) rotate(-46.52)" fill="url(#linear-gradient-13)"/><path id="path93" d="M931,1062.47C734.11,914.59,574.31,963.94,397,902.86c-67.75,156.24-42.93,335.33,76.81,448.87,157.58,149.43,419.83,128.72,585.75-46.26a489.62,489.62,0,0,0,37.5-44.6C1062.25,1193.45,1017.17,1127.19,931,1062.47Z" transform="translate(0.01 -0.03)" fill="url(#linear-gradient-14)"/><ellipse id="ellipse95" cx="774.32" cy="1034.85" rx="400.21" ry="360.42" transform="translate(-509.39 884.6) rotate(-46.52)" fill="url(#linear-gradient-15)"/><ellipse id="ellipse97" cx="774.32" cy="1034.85" rx="348.63" ry="313.97" transform="matrix(0.69, -0.73, 0.73, 0.69, -509.39, 884.6)" fill="url(#linear-gradient-16)"/><ellipse id="ellipse99" cx="1540.08" cy="1759.03" rx="363.12" ry="107.29" transform="translate(-796.02 1666.11) rotate(-46.52)" fill="url(#linear-gradient-17)"/><path id="path101" d="M1554.6,1667.44l-107.23,113.09a203.66,203.66,0,0,0-37.63,224.41l32.55,71.63a40.81,40.81,0,0,0,66.77,11.2l355.63-375a40.82,40.82,0,0,0-14.73-66.09L1776.7,1618a203.67,203.67,0,0,0-222.1,49.46Z" transform="translate(0.01 -0.03)" fill="url(#linear-gradient-18)"/><ellipse id="ellipse103" cx="1671.89" cy="1885.9" rx="299.68" ry="101.24" transform="translate(-846.97 1801.33) rotate(-46.52)" fill="url(#linear-gradient-19)"/><ellipse id="ellipse105" cx="1671.89" cy="1885.9" rx="227.76" ry="76.94" transform="translate(-846.97 1801.33) rotate(-46.52)" fill="url(#linear-gradient-20)"/><g id="g109" opacity="0.3"><path id="path107" d="M931,1062.47C763.55,936.7,622.92,953.59,475.59,923.88c-57.16,126-38.19,272,58.84,364,125.83,119.31,335.22,102.78,467.71-36.93a386.29,386.29,0,0,0,49.91-65.27C1022.75,1144.07,985,1103,931,1062.47Z" transform="translate(0.01 -0.03)" fill="url(#linear-gradient-21)"/></g><path id="path111" d="M1718.59,1852.14c-19.94,40.29,203.49,199.92,402.12,303.77,34.62,18.1,126.46,64.78,254.82,109.22,211.4,73.19,337.83,124.69,386.09,72.57,31.54-34.07,22.93-103.77-3.1-148.61-53-91.3-159-46.13-272.16-142.77-91.49-78.13-65.59-144.71-145.45-182.74-76.42-36.4-127.94,11.34-266,25.49-214.17,22-341.31-67.25-356.32-36.93Z" transform="translate(0.01 -0.03)" fill="url(#linear-gradient-22)"/><path id="path113" d="M1619.87,1952.51c182.66,62.84,283.49,151.55,342,221.79,69.47,83.37,75.49,136.1,162.77,196.18,86,59.22,150.45,56.38,207,131.34,12.62,16.71,67.94,90,44.73,141.74-39.3,87.58-296,96.13-478.86-7.76-36-20.42-175.08-99.44-197.52-232.62-11-65.14,14.63-91.79,16.5-170.57,2-81.91-22.79-175.64-96.62-280.1Z" transform="translate(0.01 -0.03)" fill="url(#linear-gradient-23)"/><path id="path115" d="M1734.94,567.64c-12.38-20.88-33.88-58.34-22.45-97.26,11-37.45,49.22-66,88-71.58,9.49-1.37,39.86-4.38,88.59,24.7,69.77,41.63,59.23,103.55,113.49,121.16,31.79,10.32,40.8-8.34,92.72,2.67,39.47,8.37,45,21.44,76,31.28,70.5,22.42,96.44-28,173.53-15.9,55.28,8.69,115.59,46.21,125,92.89,5.52,27.38-11.46,33.15-13.11,77.25-1.91,51.28,20.12,68.63,27.6,115.59,7.39,46.32-2.74,100.48-27.78,138.72-62.36,95.2-211.62,83.06-227.85,81.52-79.16-7.53-131.36-44.78-200.13-95.21C1934.69,904.66,1868.11,792.32,1734.94,567.64Z" transform="translate(0.01 -0.03)" fill="#26264f"/><path id="path117" d="M1222.3,303.88l-30.4-29.36c-7.88-7.39-16.27-14.9-25.18-22.45-13-11-25.76-21-38.07-30,0,0-2.56,5.23,4.4,12.81s20.71,18.94,24.12,21.86-8.68,13.81-1.55,26.84,24.37,13.9,30.57,7.91l22.35,21.68Z" transform="translate(0.01 -0.03)" fill="url(#linear-gradient-24)"/><path id="path121" d="M1384.17,1562.33a17.09,17.09,0,0,0,2.36.29c5.24.49,17.23,1.93,24.5,13.19,8.9,13.77,5.83,43.68.84,79.39s-22.43,3.24-24.06-2.27-18.86-80.46-18.86-80.46Z" transform="translate(0.01 -0.03)" fill="#26264f"/><path id="path123" d="M1355.17,1556.32l28.78,30.75s9.84-.78,8.25-14l-4-33.18Z" transform="translate(0.01 -0.03)" fill="url(#linear-gradient-25)"/><path id="path125" d="M1545.17,561.27c-6.74-12.55-22.68-49.4-60-66.09-29.71-13.27-43.2-.47-74.17-12.42-38.13-14.72-35-40.79-78-78.1-49.66-43-78.41-29.61-105.18-64-8.84-11.34-17.12-27.55-20.45-51.28l-25.31,26.18c2,15.85,7.2,40.67,22.49,65.9,35.8,59.1,87.87,55.56,167.27,116,35.59,27.1,21.74,25.23,99.88,98,64.93,60.46,97.92,90.76,123.62,93.61,33.49,3.73,65.71-16.32,93-42.93-90.06-24.46-127.7-56.19-143.15-84.87Z" transform="translate(0.01 -0.03)" opacity="0.3" fill="url(#linear-gradient-26)" style="isolation:isolate"/><path id="path127" d="M1714.94,933.46c-50.69-12.47-229.61-49.88-379.07,55.88-17,12-50,35.81-74.81,72.81-80.21,119.82-35.09,320.55,94.53,508l44.41-24.92c10.87-37.73,22-94.17,13.66-160.52-11.15-89.33-48.74-127.27-29.07-179.1,22.64-59.67,99.93-81.78,114.46-85.61,107.88-28.38,169.26,53.37,265.29,25.26,49.76-14.57,83.87-51.32,106-82.88Z" transform="translate(0.01 -0.03)" fill="url(#linear-gradient-27)"/><path id="path129" d="M2306.35,681.26c-12.1,16.31-36.22,43.51-74.12,54.63-59.28,17.38-115.09-15.5-159.37-42.46-64.19-39.09-50.68-54.4-112.27-95.92-71.85-48.44-191.86-71-206.49-73.58-42.31-7.41-63.77-11-79.22-6.45-57.61,17-101.26,88.7-101.7,152.7-.12,18,6.81,52.44,20.67,121.24,7.28,36.15,12.48,57.38,1.76,66.11-19,15.44-68.64-23.94-79.9-11.11-6.92,7.89,5.92,29.57,8.25,33.52,37.55,63.58,101.08,71.77,163.74,114.6,98.18,67.1,66.54,131.94,156.38,171.78,56.66,25.13,88.34,7.82,129.76,45.24,41.12,37.16,29.83,72.25,66.39,93.93,56.32,33.4,152.75-8.54,153-35.62.19-19.64-50.35-14.73-90.17-62-34.61-41.13-14.76-66.62-51-121.35-25.88-39.07-38.25-29.47-79.55-80.67-26.74-33.16-52.57-65.19-57.6-111.3-4.39-40.2,9-73.35,18.14-91.41,9.74,13.31,89.64,118.93,217.7,117.43,25-.3,116.89-1.38,169.27-75.58,45-63.76,29.65-137.3,26.44-151.32Z" transform="translate(0.01 -0.03)" fill="url(#linear-gradient-28)"/><path id="path131" d="M1789.43,474.88s5.49,45.06,22.08,55.44,43.41,23.94,46.36,27.61-103,14.69-155.44-12c0,0-1.69-8.59,20-11.65,5.76-.81,19-2.38,24.31-1.94a22.56,22.56,0,0,0,24.43-20.51c.06-.67.09-1.35.09-2l-.11-24.94Z" transform="translate(0.01 -0.03)" fill="url(#linear-gradient-29)"/><path id="path133" d="M2071.59,1281.82c-9.18-16.83-3.41-32.22-21.07-59.62-19.47-30.23-40.07-32.55-70.93-66.52-21.85-24-18-30-36.29-52.85-49.48-61.82-95.3-40.59-132.59-91.6-32.67-44.71-11.67-80.45-46.66-103.91-32.3-21.66-66-1.75-80.88-22.94-16-22.7,19.24-50.42,10.57-90.42-10.42-48-70.19-49.27-98.41-96.19-10.75-17.86-18.25-44.79-10.41-86.7-7.39,19.23-11.6,39.52-11.74,59.1-.12,18,6.81,52.44,20.67,121.24,7.28,36.15,12.48,57.38,1.76,66.11-19,15.44-68.64-23.94-79.9-11.11-6.92,7.89,5.92,29.57,8.25,33.52,37.55,63.58,101.08,71.77,163.74,114.6,98.18,67.1,66.54,131.94,156.38,171.78,56.66,25.13,88.34,7.82,129.76,45.24,41.12,37.16,29.83,72.25,66.39,93.93,24.71,14.66,57.15,14.8,85.8,8.06-31.73-6.42-47.25-18.55-54.44-31.72Z" transform="translate(0.01 -0.03)" opacity="0.3" fill="url(#linear-gradient-30)" style="isolation:isolate"/><path id="path135" d="M1791.91,490.82S1781,505.66,1764,499.41c-15.2-5.6-6-44.88,6.1-49.33,4-1.48,11.43-.79,16.36,2.31,3.47,2.18,12.72,13.74,7.35,26.65,3.85-1.1,7.23-.08,8.07,1.83,1.07,2.42-2.2,5.69-2.94,6.44A12.89,12.89,0,0,1,1791.91,490.82Z" transform="translate(0.01 -0.03)" fill="url(#linear-gradient-31)"/><path id="path137" d="M2310.54,45.67c96.5-47.85,188.52-35,234.47-14.62,54.32,24,72.33,42.08,120.42,51.15,42.74,8.07,87.1-44.35,120.41-7.3a59,59,0,0,1,8.11,11c23.86,41.24-4.33,91.06,3.47,178.1,4,44.54,13.65,56.9,22.58,142.49,3.4,32.55,2.69,37.34,1.74,41.1-14.6,57.76-130.39,46.84-211.89,21.92-112.36-34.35-148.53-92-222.31-65.76-34,12.09-59.89,36.28-76.42,54.8,7.53-137-8.1-275.88-.58-412.88Z" transform="translate(0.01 -0.03)" fill="url(#linear-gradient-32)"/><path id="path141" d="M2336.56,690.57s6.78-27.57,6.78-41.21-37.52-13.65-44.34-13.65-3.41,23.88,10.23,25.58c9.85,1.24,10.81,14.25,10.58,21.37a5.46,5.46,0,0,0,4.43,5.54Z" transform="translate(0.01 -0.03)" fill="url(#linear-gradient-33)"/></g></svg>